%TF.GenerationSoftware,KiCad,Pcbnew,8.0.5*%
%TF.CreationDate,2025-05-26T14:34:01+02:00*%
%TF.ProjectId,RF_Receiver,52465f52-6563-4656-9976-65722e6b6963,rev?*%
%TF.SameCoordinates,Original*%
%TF.FileFunction,Copper,L1,Top*%
%TF.FilePolarity,Positive*%
%FSLAX46Y46*%
G04 Gerber Fmt 4.6, Leading zero omitted, Abs format (unit mm)*
G04 Created by KiCad (PCBNEW 8.0.5) date 2025-05-26 14:34:01*
%MOMM*%
%LPD*%
G01*
G04 APERTURE LIST*
G04 Aperture macros list*
%AMRoundRect*
0 Rectangle with rounded corners*
0 $1 Rounding radius*
0 $2 $3 $4 $5 $6 $7 $8 $9 X,Y pos of 4 corners*
0 Add a 4 corners polygon primitive as box body*
4,1,4,$2,$3,$4,$5,$6,$7,$8,$9,$2,$3,0*
0 Add four circle primitives for the rounded corners*
1,1,$1+$1,$2,$3*
1,1,$1+$1,$4,$5*
1,1,$1+$1,$6,$7*
1,1,$1+$1,$8,$9*
0 Add four rect primitives between the rounded corners*
20,1,$1+$1,$2,$3,$4,$5,0*
20,1,$1+$1,$4,$5,$6,$7,0*
20,1,$1+$1,$6,$7,$8,$9,0*
20,1,$1+$1,$8,$9,$2,$3,0*%
G04 Aperture macros list end*
%TA.AperFunction,SMDPad,CuDef*%
%ADD10RoundRect,0.250000X-0.337500X-0.475000X0.337500X-0.475000X0.337500X0.475000X-0.337500X0.475000X0*%
%TD*%
%TA.AperFunction,SMDPad,CuDef*%
%ADD11RoundRect,0.237500X0.250000X0.237500X-0.250000X0.237500X-0.250000X-0.237500X0.250000X-0.237500X0*%
%TD*%
%TA.AperFunction,SMDPad,CuDef*%
%ADD12RoundRect,0.250000X0.337500X0.475000X-0.337500X0.475000X-0.337500X-0.475000X0.337500X-0.475000X0*%
%TD*%
%TA.AperFunction,ComponentPad*%
%ADD13C,1.800000*%
%TD*%
%TA.AperFunction,SMDPad,CuDef*%
%ADD14RoundRect,0.250000X-0.475000X0.337500X-0.475000X-0.337500X0.475000X-0.337500X0.475000X0.337500X0*%
%TD*%
%TA.AperFunction,SMDPad,CuDef*%
%ADD15RoundRect,0.250000X0.450000X-0.350000X0.450000X0.350000X-0.450000X0.350000X-0.450000X-0.350000X0*%
%TD*%
%TA.AperFunction,SMDPad,CuDef*%
%ADD16RoundRect,0.250000X0.350000X0.450000X-0.350000X0.450000X-0.350000X-0.450000X0.350000X-0.450000X0*%
%TD*%
%TA.AperFunction,SMDPad,CuDef*%
%ADD17RoundRect,0.250000X0.385000X1.350000X-0.385000X1.350000X-0.385000X-1.350000X0.385000X-1.350000X0*%
%TD*%
%TA.AperFunction,SMDPad,CuDef*%
%ADD18RoundRect,0.250000X0.425000X1.600000X-0.425000X1.600000X-0.425000X-1.600000X0.425000X-1.600000X0*%
%TD*%
%TA.AperFunction,SMDPad,CuDef*%
%ADD19RoundRect,0.250000X0.475000X-0.337500X0.475000X0.337500X-0.475000X0.337500X-0.475000X-0.337500X0*%
%TD*%
%TA.AperFunction,SMDPad,CuDef*%
%ADD20RoundRect,0.062500X-0.062500X0.350000X-0.062500X-0.350000X0.062500X-0.350000X0.062500X0.350000X0*%
%TD*%
%TA.AperFunction,HeatsinkPad*%
%ADD21R,2.500000X1.700000*%
%TD*%
%TA.AperFunction,ViaPad*%
%ADD22C,0.600000*%
%TD*%
%TA.AperFunction,Conductor*%
%ADD23C,0.200000*%
%TD*%
%TA.AperFunction,Conductor*%
%ADD24C,0.500000*%
%TD*%
%TA.AperFunction,Conductor*%
%ADD25C,0.680000*%
%TD*%
G04 APERTURE END LIST*
D10*
%TO.P,C8,1*%
%TO.N,GND*%
X150325000Y-91440000D03*
%TO.P,C8,2*%
%TO.N,RF_In*%
X152400000Y-91440000D03*
%TD*%
D11*
%TO.P,R2,1*%
%TO.N,Net-(U1-IN+)*%
X152400000Y-97151000D03*
%TO.P,R2,2*%
%TO.N,Net-(U1-IN-)*%
X150575000Y-97151000D03*
%TD*%
D12*
%TO.P,C2,1*%
%TO.N,Net-(U1-EN)*%
X154686000Y-105664000D03*
%TO.P,C2,2*%
%TO.N,GND*%
X152611000Y-105664000D03*
%TD*%
D13*
%TO.P,J1,1,AN*%
%TO.N,Analog_Out*%
X140970000Y-92710000D03*
%TO.P,J1,2,RST*%
%TO.N,unconnected-(J1-RST-Pad2)*%
X140970000Y-95250000D03*
%TO.P,J1,3,CS*%
%TO.N,unconnected-(J1-CS-Pad3)*%
X140970000Y-97790000D03*
%TO.P,J1,4,SCK*%
%TO.N,unconnected-(J1-SCK-Pad4)*%
X140970000Y-100330000D03*
%TO.P,J1,5,SDO*%
%TO.N,unconnected-(J1-SDO-Pad5)*%
X140970000Y-102870000D03*
%TO.P,J1,6,SDI*%
%TO.N,unconnected-(J1-SDI-Pad6)*%
X140970000Y-105410000D03*
%TO.P,J1,7,3V3*%
%TO.N,+3V3*%
X140970000Y-107950000D03*
%TO.P,J1,8,GND*%
%TO.N,GND*%
X140970000Y-110490000D03*
%TO.P,J1,9,PWM*%
%TO.N,unconnected-(J1-PWM-Pad9)*%
X163830000Y-92710000D03*
%TO.P,J1,10,INT*%
%TO.N,unconnected-(J1-INT-Pad10)*%
X163830000Y-95250000D03*
%TO.P,J1,11,TX*%
%TO.N,unconnected-(J1-TX-Pad11)*%
X163830000Y-97790000D03*
%TO.P,J1,12,RX*%
%TO.N,unconnected-(J1-RX-Pad12)*%
X163830000Y-100330000D03*
%TO.P,J1,13,SCL*%
%TO.N,unconnected-(J1-SCL-Pad13)*%
X163830000Y-102870000D03*
%TO.P,J1,14,SDA*%
%TO.N,unconnected-(J1-SDA-Pad14)*%
X163830000Y-105410000D03*
%TO.P,J1,15,5V*%
%TO.N,+5V*%
X163830000Y-107950000D03*
%TO.P,J1,16,GND*%
%TO.N,GND*%
X163830000Y-110490000D03*
%TD*%
D14*
%TO.P,C7,1*%
%TO.N,RF_In*%
X152400000Y-93341000D03*
%TO.P,C7,2*%
%TO.N,Net-(U1-IN+)*%
X152400000Y-95416000D03*
%TD*%
D15*
%TO.P,R3,1*%
%TO.N,Net-(U1-RT2)*%
X156718000Y-98409000D03*
%TO.P,R3,2*%
%TO.N,GND*%
X156718000Y-96409000D03*
%TD*%
D14*
%TO.P,C5,1*%
%TO.N,Net-(U1-IN-)*%
X146558000Y-97155000D03*
%TO.P,C5,2*%
%TO.N,GND*%
X146558000Y-99230000D03*
%TD*%
D15*
%TO.P,R4,1*%
%TO.N,Net-(U1-RT1)*%
X158623000Y-98409000D03*
%TO.P,R4,2*%
%TO.N,GND*%
X158623000Y-96409000D03*
%TD*%
D16*
%TO.P,R1,1*%
%TO.N,Net-(U1-EN)*%
X148320000Y-105918000D03*
%TO.P,R1,2*%
%TO.N,+3V3*%
X146320000Y-105918000D03*
%TD*%
D14*
%TO.P,C3,1*%
%TO.N,Net-(U1-EN)*%
X146304000Y-107950000D03*
%TO.P,C3,2*%
%TO.N,GND*%
X146304000Y-110025000D03*
%TD*%
D17*
%TO.P,J2,1,In*%
%TO.N,RF_In*%
X152400000Y-87630000D03*
D18*
%TO.P,J2,2,Ext*%
%TO.N,GND*%
X149575000Y-87880000D03*
X155225000Y-87880000D03*
%TD*%
D14*
%TO.P,C4,1*%
%TO.N,Net-(U1-IN-)*%
X148590000Y-97151000D03*
%TO.P,C4,2*%
%TO.N,GND*%
X148590000Y-99226000D03*
%TD*%
D19*
%TO.P,C1,1*%
%TO.N,Net-(U1-EN)*%
X154686000Y-103675000D03*
%TO.P,C1,2*%
%TO.N,Net-(U1-FLTR)*%
X154686000Y-101600000D03*
%TD*%
D20*
%TO.P,U1,1,VCC*%
%TO.N,Net-(U1-EN)*%
X152900000Y-98675000D03*
%TO.P,U1,2,IN+*%
%TO.N,Net-(U1-IN+)*%
X152400000Y-98675000D03*
%TO.P,U1,3,DEC*%
%TO.N,unconnected-(U1-DEC-Pad3)*%
X151900000Y-98675000D03*
%TO.P,U1,4,IN-*%
%TO.N,Net-(U1-IN-)*%
X151400000Y-98675000D03*
%TO.P,U1,5,GND*%
%TO.N,GND*%
X150900000Y-98675000D03*
%TO.P,U1,6,OUT*%
%TO.N,Analog_Out*%
X150900000Y-101600000D03*
%TO.P,U1,7,RT2*%
%TO.N,Net-(U1-RT2)*%
X151400000Y-101600000D03*
%TO.P,U1,8,RT1*%
%TO.N,Net-(U1-RT1)*%
X151900000Y-101600000D03*
%TO.P,U1,9,EN*%
%TO.N,Net-(U1-EN)*%
X152400000Y-101600000D03*
%TO.P,U1,10,FLTR*%
%TO.N,Net-(U1-FLTR)*%
X152900000Y-101600000D03*
D21*
%TO.P,U1,11,PAD*%
%TO.N,GND*%
X151900000Y-100137500D03*
%TD*%
D10*
%TO.P,C6,1*%
%TO.N,Analog_Out*%
X140970000Y-89789000D03*
%TO.P,C6,2*%
%TO.N,GND*%
X143045000Y-89789000D03*
%TD*%
D22*
%TO.N,GND*%
X153949400Y-100148200D03*
X146558000Y-100711000D03*
X148844000Y-91440000D03*
X151257000Y-105664000D03*
X149943327Y-100129927D03*
X144399000Y-89789000D03*
X156718000Y-95123000D03*
X158623000Y-95123000D03*
X156972000Y-87884000D03*
X147828000Y-87884000D03*
X148590000Y-100707000D03*
X146304000Y-111506000D03*
%TO.N,Net-(U1-RT2)*%
X149225000Y-103251000D03*
X156718000Y-99949000D03*
%TO.N,Net-(U1-RT1)*%
X158623000Y-99949000D03*
X149225000Y-104001003D03*
%TD*%
D23*
%TO.N,Net-(U1-FLTR)*%
X152900000Y-101600000D02*
X154686000Y-101600000D01*
D24*
%TO.N,Net-(U1-EN)*%
X156591000Y-100965000D02*
X156591000Y-102997000D01*
D23*
X152900000Y-98675000D02*
X152900000Y-98313801D01*
D24*
X152400000Y-102362000D02*
X153713000Y-103675000D01*
X155913000Y-103675000D02*
X154686000Y-103675000D01*
X156210000Y-100584000D02*
X156591000Y-100965000D01*
X153924000Y-98044000D02*
X154559000Y-98044000D01*
X155067000Y-100076000D02*
X155575000Y-100584000D01*
D23*
X152900000Y-98313801D02*
X153162000Y-98051801D01*
D24*
X149987000Y-105918000D02*
X151257000Y-107188000D01*
X155067000Y-98552000D02*
X155067000Y-100076000D01*
X153713000Y-103675000D02*
X154686000Y-103675000D01*
X146304000Y-107950000D02*
X147447000Y-107950000D01*
X148320000Y-105918000D02*
X149987000Y-105918000D01*
X154686000Y-106934000D02*
X154686000Y-105664000D01*
D23*
X152900000Y-98313801D02*
X152911901Y-98301900D01*
D24*
X147447000Y-107950000D02*
X148320000Y-107077000D01*
X154432000Y-107188000D02*
X154686000Y-106934000D01*
X151257000Y-107188000D02*
X154432000Y-107188000D01*
D23*
X153162000Y-98044000D02*
X153924000Y-98044000D01*
D24*
X155575000Y-100584000D02*
X156210000Y-100584000D01*
X154686000Y-103675000D02*
X154686000Y-105664000D01*
X154559000Y-98044000D02*
X155067000Y-98552000D01*
X148320000Y-107077000D02*
X148320000Y-105918000D01*
X156591000Y-102997000D02*
X155913000Y-103675000D01*
D23*
X152400000Y-101600000D02*
X152400000Y-102362000D01*
X153162000Y-98051801D02*
X153162000Y-98044000D01*
%TO.N,GND*%
X153938700Y-100137500D02*
X153949400Y-100148200D01*
X155225000Y-87880000D02*
X156968000Y-87880000D01*
X156718000Y-96409000D02*
X156718000Y-95123000D01*
X150900000Y-98675000D02*
X150114000Y-98675000D01*
X149575000Y-87880000D02*
X147832000Y-87880000D01*
X156968000Y-87880000D02*
X156972000Y-87884000D01*
X149563000Y-99226000D02*
X148590000Y-99226000D01*
X147832000Y-87880000D02*
X147828000Y-87884000D01*
X146304000Y-110025000D02*
X146304000Y-111506000D01*
X146558000Y-99230000D02*
X146558000Y-100711000D01*
X151900000Y-100137500D02*
X149950900Y-100137500D01*
X150114000Y-98675000D02*
X149563000Y-99226000D01*
X158623000Y-96409000D02*
X158623000Y-95123000D01*
X152611000Y-105664000D02*
X151257000Y-105664000D01*
X148590000Y-99226000D02*
X148590000Y-100707000D01*
X143045000Y-89789000D02*
X144399000Y-89789000D01*
X151900000Y-100137500D02*
X153938700Y-100137500D01*
X150325000Y-91440000D02*
X148844000Y-91440000D01*
X149950900Y-100137500D02*
X149943327Y-100129927D01*
D25*
%TO.N,Net-(U1-IN-)*%
X148590000Y-97151000D02*
X146562000Y-97151000D01*
X150575000Y-97151000D02*
X148590000Y-97151000D01*
X146562000Y-97151000D02*
X146558000Y-97155000D01*
D23*
X151400000Y-97976000D02*
X150575000Y-97151000D01*
X151400000Y-98675000D02*
X151400000Y-97976000D01*
%TO.N,Analog_Out*%
X145161000Y-93091000D02*
X144780000Y-92710000D01*
X150900000Y-101600000D02*
X150900000Y-102338000D01*
X140970000Y-89789000D02*
X140970000Y-92710000D01*
X149352000Y-101473000D02*
X145669000Y-101473000D01*
X150900000Y-102338000D02*
X150622000Y-102616000D01*
X149733000Y-101854000D02*
X149352000Y-101473000D01*
X145669000Y-101473000D02*
X145161000Y-100965000D01*
X149987000Y-102616000D02*
X149733000Y-102362000D01*
X150622000Y-102616000D02*
X149987000Y-102616000D01*
X144780000Y-92710000D02*
X140970000Y-92710000D01*
X149733000Y-102362000D02*
X149733000Y-101854000D01*
X145161000Y-100965000D02*
X145161000Y-93091000D01*
D25*
%TO.N,RF_In*%
X152400000Y-87630000D02*
X152400000Y-91440000D01*
X152400000Y-91440000D02*
X152400000Y-93341000D01*
%TO.N,Net-(U1-IN+)*%
X152400000Y-97151000D02*
X152400000Y-97908704D01*
D23*
X152400000Y-98675000D02*
X152400000Y-97908704D01*
D25*
X152400000Y-95416000D02*
X152400000Y-97151000D01*
D24*
%TO.N,+3V3*%
X142621000Y-107950000D02*
X143256000Y-107315000D01*
X143764000Y-105918000D02*
X146320000Y-105918000D01*
X143256000Y-107315000D02*
X143256000Y-106426000D01*
X143256000Y-106426000D02*
X143764000Y-105918000D01*
X140970000Y-107950000D02*
X142621000Y-107950000D01*
D23*
%TO.N,Net-(U1-RT2)*%
X150876000Y-103124000D02*
X150749000Y-103251000D01*
X156718000Y-99949000D02*
X156718000Y-98409000D01*
X150749000Y-103251000D02*
X149225000Y-103251000D01*
X151400000Y-102600000D02*
X150876000Y-103124000D01*
X151400000Y-101600000D02*
X151400000Y-102600000D01*
%TO.N,Net-(U1-RT1)*%
X151130000Y-103378000D02*
X150506997Y-104001003D01*
X151900000Y-102608000D02*
X151130000Y-103378000D01*
X151900000Y-101600000D02*
X151900000Y-102608000D01*
X158623000Y-99949000D02*
X158623000Y-98409000D01*
X150506997Y-104001003D02*
X149225000Y-104001003D01*
%TD*%
M02*
