%TF.GenerationSoftware,KiCad,Pcbnew,8.0.5*%
%TF.CreationDate,2025-05-26T14:34:01+02:00*%
%TF.ProjectId,RF_Receiver,52465f52-6563-4656-9976-65722e6b6963,rev?*%
%TF.SameCoordinates,Original*%
%TF.FileFunction,Legend,Top*%
%TF.FilePolarity,Positive*%
%FSLAX46Y46*%
G04 Gerber Fmt 4.6, Leading zero omitted, Abs format (unit mm)*
G04 Created by KiCad (PCBNEW 8.0.5) date 2025-05-26 14:34:01*
%MOMM*%
%LPD*%
G01*
G04 APERTURE LIST*
%ADD10C,0.100000*%
%ADD11C,0.150000*%
%ADD12C,0.120000*%
%ADD13C,0.000000*%
G04 APERTURE END LIST*
D10*
X160784217Y-113013609D02*
X160927074Y-113061228D01*
X160927074Y-113061228D02*
X160974693Y-113108847D01*
X160974693Y-113108847D02*
X161022312Y-113204085D01*
X161022312Y-113204085D02*
X161022312Y-113346942D01*
X161022312Y-113346942D02*
X160974693Y-113442180D01*
X160974693Y-113442180D02*
X160927074Y-113489800D01*
X160927074Y-113489800D02*
X160831836Y-113537419D01*
X160831836Y-113537419D02*
X160450884Y-113537419D01*
X160450884Y-113537419D02*
X160450884Y-112537419D01*
X160450884Y-112537419D02*
X160784217Y-112537419D01*
X160784217Y-112537419D02*
X160879455Y-112585038D01*
X160879455Y-112585038D02*
X160927074Y-112632657D01*
X160927074Y-112632657D02*
X160974693Y-112727895D01*
X160974693Y-112727895D02*
X160974693Y-112823133D01*
X160974693Y-112823133D02*
X160927074Y-112918371D01*
X160927074Y-112918371D02*
X160879455Y-112965990D01*
X160879455Y-112965990D02*
X160784217Y-113013609D01*
X160784217Y-113013609D02*
X160450884Y-113013609D01*
X161450884Y-113537419D02*
X161450884Y-112537419D01*
X161450884Y-113013609D02*
X162022312Y-113013609D01*
X162022312Y-113537419D02*
X162022312Y-112537419D01*
X149084312Y-113537419D02*
X148750979Y-113061228D01*
X148512884Y-113537419D02*
X148512884Y-112537419D01*
X148512884Y-112537419D02*
X148893836Y-112537419D01*
X148893836Y-112537419D02*
X148989074Y-112585038D01*
X148989074Y-112585038D02*
X149036693Y-112632657D01*
X149036693Y-112632657D02*
X149084312Y-112727895D01*
X149084312Y-112727895D02*
X149084312Y-112870752D01*
X149084312Y-112870752D02*
X149036693Y-112965990D01*
X149036693Y-112965990D02*
X148989074Y-113013609D01*
X148989074Y-113013609D02*
X148893836Y-113061228D01*
X148893836Y-113061228D02*
X148512884Y-113061228D01*
X149846217Y-113013609D02*
X149512884Y-113013609D01*
X149512884Y-113537419D02*
X149512884Y-112537419D01*
X149512884Y-112537419D02*
X149989074Y-112537419D01*
X150131932Y-113632657D02*
X150893836Y-113632657D01*
X151131932Y-113537419D02*
X151131932Y-112537419D01*
X151131932Y-112537419D02*
X151512884Y-112537419D01*
X151512884Y-112537419D02*
X151608122Y-112585038D01*
X151608122Y-112585038D02*
X151655741Y-112632657D01*
X151655741Y-112632657D02*
X151703360Y-112727895D01*
X151703360Y-112727895D02*
X151703360Y-112870752D01*
X151703360Y-112870752D02*
X151655741Y-112965990D01*
X151655741Y-112965990D02*
X151608122Y-113013609D01*
X151608122Y-113013609D02*
X151512884Y-113061228D01*
X151512884Y-113061228D02*
X151131932Y-113061228D01*
X152131932Y-113537419D02*
X152131932Y-112537419D01*
X152131932Y-112537419D02*
X152465265Y-113251704D01*
X152465265Y-113251704D02*
X152798598Y-112537419D01*
X152798598Y-112537419D02*
X152798598Y-113537419D01*
X153893837Y-112537419D02*
X154227170Y-113537419D01*
X154227170Y-113537419D02*
X154560503Y-112537419D01*
X155417646Y-113537419D02*
X154846218Y-113537419D01*
X155131932Y-113537419D02*
X155131932Y-112537419D01*
X155131932Y-112537419D02*
X155036694Y-112680276D01*
X155036694Y-112680276D02*
X154941456Y-112775514D01*
X154941456Y-112775514D02*
X154846218Y-112823133D01*
X155846218Y-113442180D02*
X155893837Y-113489800D01*
X155893837Y-113489800D02*
X155846218Y-113537419D01*
X155846218Y-113537419D02*
X155798599Y-113489800D01*
X155798599Y-113489800D02*
X155846218Y-113442180D01*
X155846218Y-113442180D02*
X155846218Y-113537419D01*
X156512884Y-112537419D02*
X156608122Y-112537419D01*
X156608122Y-112537419D02*
X156703360Y-112585038D01*
X156703360Y-112585038D02*
X156750979Y-112632657D01*
X156750979Y-112632657D02*
X156798598Y-112727895D01*
X156798598Y-112727895D02*
X156846217Y-112918371D01*
X156846217Y-112918371D02*
X156846217Y-113156466D01*
X156846217Y-113156466D02*
X156798598Y-113346942D01*
X156798598Y-113346942D02*
X156750979Y-113442180D01*
X156750979Y-113442180D02*
X156703360Y-113489800D01*
X156703360Y-113489800D02*
X156608122Y-113537419D01*
X156608122Y-113537419D02*
X156512884Y-113537419D01*
X156512884Y-113537419D02*
X156417646Y-113489800D01*
X156417646Y-113489800D02*
X156370027Y-113442180D01*
X156370027Y-113442180D02*
X156322408Y-113346942D01*
X156322408Y-113346942D02*
X156274789Y-113156466D01*
X156274789Y-113156466D02*
X156274789Y-112918371D01*
X156274789Y-112918371D02*
X156322408Y-112727895D01*
X156322408Y-112727895D02*
X156370027Y-112632657D01*
X156370027Y-112632657D02*
X156417646Y-112585038D01*
X156417646Y-112585038D02*
X156512884Y-112537419D01*
D11*
X154011333Y-91799580D02*
X153963714Y-91847200D01*
X153963714Y-91847200D02*
X153820857Y-91894819D01*
X153820857Y-91894819D02*
X153725619Y-91894819D01*
X153725619Y-91894819D02*
X153582762Y-91847200D01*
X153582762Y-91847200D02*
X153487524Y-91751961D01*
X153487524Y-91751961D02*
X153439905Y-91656723D01*
X153439905Y-91656723D02*
X153392286Y-91466247D01*
X153392286Y-91466247D02*
X153392286Y-91323390D01*
X153392286Y-91323390D02*
X153439905Y-91132914D01*
X153439905Y-91132914D02*
X153487524Y-91037676D01*
X153487524Y-91037676D02*
X153582762Y-90942438D01*
X153582762Y-90942438D02*
X153725619Y-90894819D01*
X153725619Y-90894819D02*
X153820857Y-90894819D01*
X153820857Y-90894819D02*
X153963714Y-90942438D01*
X153963714Y-90942438D02*
X154011333Y-90990057D01*
X154582762Y-91323390D02*
X154487524Y-91275771D01*
X154487524Y-91275771D02*
X154439905Y-91228152D01*
X154439905Y-91228152D02*
X154392286Y-91132914D01*
X154392286Y-91132914D02*
X154392286Y-91085295D01*
X154392286Y-91085295D02*
X154439905Y-90990057D01*
X154439905Y-90990057D02*
X154487524Y-90942438D01*
X154487524Y-90942438D02*
X154582762Y-90894819D01*
X154582762Y-90894819D02*
X154773238Y-90894819D01*
X154773238Y-90894819D02*
X154868476Y-90942438D01*
X154868476Y-90942438D02*
X154916095Y-90990057D01*
X154916095Y-90990057D02*
X154963714Y-91085295D01*
X154963714Y-91085295D02*
X154963714Y-91132914D01*
X154963714Y-91132914D02*
X154916095Y-91228152D01*
X154916095Y-91228152D02*
X154868476Y-91275771D01*
X154868476Y-91275771D02*
X154773238Y-91323390D01*
X154773238Y-91323390D02*
X154582762Y-91323390D01*
X154582762Y-91323390D02*
X154487524Y-91371009D01*
X154487524Y-91371009D02*
X154439905Y-91418628D01*
X154439905Y-91418628D02*
X154392286Y-91513866D01*
X154392286Y-91513866D02*
X154392286Y-91704342D01*
X154392286Y-91704342D02*
X154439905Y-91799580D01*
X154439905Y-91799580D02*
X154487524Y-91847200D01*
X154487524Y-91847200D02*
X154582762Y-91894819D01*
X154582762Y-91894819D02*
X154773238Y-91894819D01*
X154773238Y-91894819D02*
X154868476Y-91847200D01*
X154868476Y-91847200D02*
X154916095Y-91799580D01*
X154916095Y-91799580D02*
X154963714Y-91704342D01*
X154963714Y-91704342D02*
X154963714Y-91513866D01*
X154963714Y-91513866D02*
X154916095Y-91418628D01*
X154916095Y-91418628D02*
X154868476Y-91371009D01*
X154868476Y-91371009D02*
X154773238Y-91323390D01*
X154011333Y-97482819D02*
X153678000Y-97006628D01*
X153439905Y-97482819D02*
X153439905Y-96482819D01*
X153439905Y-96482819D02*
X153820857Y-96482819D01*
X153820857Y-96482819D02*
X153916095Y-96530438D01*
X153916095Y-96530438D02*
X153963714Y-96578057D01*
X153963714Y-96578057D02*
X154011333Y-96673295D01*
X154011333Y-96673295D02*
X154011333Y-96816152D01*
X154011333Y-96816152D02*
X153963714Y-96911390D01*
X153963714Y-96911390D02*
X153916095Y-96959009D01*
X153916095Y-96959009D02*
X153820857Y-97006628D01*
X153820857Y-97006628D02*
X153439905Y-97006628D01*
X154392286Y-96578057D02*
X154439905Y-96530438D01*
X154439905Y-96530438D02*
X154535143Y-96482819D01*
X154535143Y-96482819D02*
X154773238Y-96482819D01*
X154773238Y-96482819D02*
X154868476Y-96530438D01*
X154868476Y-96530438D02*
X154916095Y-96578057D01*
X154916095Y-96578057D02*
X154963714Y-96673295D01*
X154963714Y-96673295D02*
X154963714Y-96768533D01*
X154963714Y-96768533D02*
X154916095Y-96911390D01*
X154916095Y-96911390D02*
X154344667Y-97482819D01*
X154344667Y-97482819D02*
X154963714Y-97482819D01*
X156508333Y-106023580D02*
X156460714Y-106071200D01*
X156460714Y-106071200D02*
X156317857Y-106118819D01*
X156317857Y-106118819D02*
X156222619Y-106118819D01*
X156222619Y-106118819D02*
X156079762Y-106071200D01*
X156079762Y-106071200D02*
X155984524Y-105975961D01*
X155984524Y-105975961D02*
X155936905Y-105880723D01*
X155936905Y-105880723D02*
X155889286Y-105690247D01*
X155889286Y-105690247D02*
X155889286Y-105547390D01*
X155889286Y-105547390D02*
X155936905Y-105356914D01*
X155936905Y-105356914D02*
X155984524Y-105261676D01*
X155984524Y-105261676D02*
X156079762Y-105166438D01*
X156079762Y-105166438D02*
X156222619Y-105118819D01*
X156222619Y-105118819D02*
X156317857Y-105118819D01*
X156317857Y-105118819D02*
X156460714Y-105166438D01*
X156460714Y-105166438D02*
X156508333Y-105214057D01*
X156889286Y-105214057D02*
X156936905Y-105166438D01*
X156936905Y-105166438D02*
X157032143Y-105118819D01*
X157032143Y-105118819D02*
X157270238Y-105118819D01*
X157270238Y-105118819D02*
X157365476Y-105166438D01*
X157365476Y-105166438D02*
X157413095Y-105214057D01*
X157413095Y-105214057D02*
X157460714Y-105309295D01*
X157460714Y-105309295D02*
X157460714Y-105404533D01*
X157460714Y-105404533D02*
X157413095Y-105547390D01*
X157413095Y-105547390D02*
X156841667Y-106118819D01*
X156841667Y-106118819D02*
X157460714Y-106118819D01*
D10*
X159577693Y-109410038D02*
X159482455Y-109362419D01*
X159482455Y-109362419D02*
X159339598Y-109362419D01*
X159339598Y-109362419D02*
X159196741Y-109410038D01*
X159196741Y-109410038D02*
X159101503Y-109505276D01*
X159101503Y-109505276D02*
X159053884Y-109600514D01*
X159053884Y-109600514D02*
X159006265Y-109790990D01*
X159006265Y-109790990D02*
X159006265Y-109933847D01*
X159006265Y-109933847D02*
X159053884Y-110124323D01*
X159053884Y-110124323D02*
X159101503Y-110219561D01*
X159101503Y-110219561D02*
X159196741Y-110314800D01*
X159196741Y-110314800D02*
X159339598Y-110362419D01*
X159339598Y-110362419D02*
X159434836Y-110362419D01*
X159434836Y-110362419D02*
X159577693Y-110314800D01*
X159577693Y-110314800D02*
X159625312Y-110267180D01*
X159625312Y-110267180D02*
X159625312Y-109933847D01*
X159625312Y-109933847D02*
X159434836Y-109933847D01*
X160053884Y-110362419D02*
X160053884Y-109362419D01*
X160053884Y-109362419D02*
X160625312Y-110362419D01*
X160625312Y-110362419D02*
X160625312Y-109362419D01*
X161101503Y-110362419D02*
X161101503Y-109362419D01*
X161101503Y-109362419D02*
X161339598Y-109362419D01*
X161339598Y-109362419D02*
X161482455Y-109410038D01*
X161482455Y-109410038D02*
X161577693Y-109505276D01*
X161577693Y-109505276D02*
X161625312Y-109600514D01*
X161625312Y-109600514D02*
X161672931Y-109790990D01*
X161672931Y-109790990D02*
X161672931Y-109933847D01*
X161672931Y-109933847D02*
X161625312Y-110124323D01*
X161625312Y-110124323D02*
X161577693Y-110219561D01*
X161577693Y-110219561D02*
X161482455Y-110314800D01*
X161482455Y-110314800D02*
X161339598Y-110362419D01*
X161339598Y-110362419D02*
X161101503Y-110362419D01*
X142448646Y-106822419D02*
X143067693Y-106822419D01*
X143067693Y-106822419D02*
X142734360Y-107203371D01*
X142734360Y-107203371D02*
X142877217Y-107203371D01*
X142877217Y-107203371D02*
X142972455Y-107250990D01*
X142972455Y-107250990D02*
X143020074Y-107298609D01*
X143020074Y-107298609D02*
X143067693Y-107393847D01*
X143067693Y-107393847D02*
X143067693Y-107631942D01*
X143067693Y-107631942D02*
X143020074Y-107727180D01*
X143020074Y-107727180D02*
X142972455Y-107774800D01*
X142972455Y-107774800D02*
X142877217Y-107822419D01*
X142877217Y-107822419D02*
X142591503Y-107822419D01*
X142591503Y-107822419D02*
X142496265Y-107774800D01*
X142496265Y-107774800D02*
X142448646Y-107727180D01*
X143353408Y-106822419D02*
X143686741Y-107822419D01*
X143686741Y-107822419D02*
X144020074Y-106822419D01*
X144258170Y-106822419D02*
X144877217Y-106822419D01*
X144877217Y-106822419D02*
X144543884Y-107203371D01*
X144543884Y-107203371D02*
X144686741Y-107203371D01*
X144686741Y-107203371D02*
X144781979Y-107250990D01*
X144781979Y-107250990D02*
X144829598Y-107298609D01*
X144829598Y-107298609D02*
X144877217Y-107393847D01*
X144877217Y-107393847D02*
X144877217Y-107631942D01*
X144877217Y-107631942D02*
X144829598Y-107727180D01*
X144829598Y-107727180D02*
X144781979Y-107774800D01*
X144781979Y-107774800D02*
X144686741Y-107822419D01*
X144686741Y-107822419D02*
X144401027Y-107822419D01*
X144401027Y-107822419D02*
X144305789Y-107774800D01*
X144305789Y-107774800D02*
X144258170Y-107727180D01*
X143115312Y-95122419D02*
X142781979Y-94646228D01*
X142543884Y-95122419D02*
X142543884Y-94122419D01*
X142543884Y-94122419D02*
X142924836Y-94122419D01*
X142924836Y-94122419D02*
X143020074Y-94170038D01*
X143020074Y-94170038D02*
X143067693Y-94217657D01*
X143067693Y-94217657D02*
X143115312Y-94312895D01*
X143115312Y-94312895D02*
X143115312Y-94455752D01*
X143115312Y-94455752D02*
X143067693Y-94550990D01*
X143067693Y-94550990D02*
X143020074Y-94598609D01*
X143020074Y-94598609D02*
X142924836Y-94646228D01*
X142924836Y-94646228D02*
X142543884Y-94646228D01*
X143496265Y-95074800D02*
X143639122Y-95122419D01*
X143639122Y-95122419D02*
X143877217Y-95122419D01*
X143877217Y-95122419D02*
X143972455Y-95074800D01*
X143972455Y-95074800D02*
X144020074Y-95027180D01*
X144020074Y-95027180D02*
X144067693Y-94931942D01*
X144067693Y-94931942D02*
X144067693Y-94836704D01*
X144067693Y-94836704D02*
X144020074Y-94741466D01*
X144020074Y-94741466D02*
X143972455Y-94693847D01*
X143972455Y-94693847D02*
X143877217Y-94646228D01*
X143877217Y-94646228D02*
X143686741Y-94598609D01*
X143686741Y-94598609D02*
X143591503Y-94550990D01*
X143591503Y-94550990D02*
X143543884Y-94503371D01*
X143543884Y-94503371D02*
X143496265Y-94408133D01*
X143496265Y-94408133D02*
X143496265Y-94312895D01*
X143496265Y-94312895D02*
X143543884Y-94217657D01*
X143543884Y-94217657D02*
X143591503Y-94170038D01*
X143591503Y-94170038D02*
X143686741Y-94122419D01*
X143686741Y-94122419D02*
X143924836Y-94122419D01*
X143924836Y-94122419D02*
X144067693Y-94170038D01*
X144353408Y-94122419D02*
X144924836Y-94122419D01*
X144639122Y-95122419D02*
X144639122Y-94122419D01*
X142496265Y-92296704D02*
X142972455Y-92296704D01*
X142401027Y-92582419D02*
X142734360Y-91582419D01*
X142734360Y-91582419D02*
X143067693Y-92582419D01*
X143401027Y-92582419D02*
X143401027Y-91582419D01*
X143401027Y-91582419D02*
X143972455Y-92582419D01*
X143972455Y-92582419D02*
X143972455Y-91582419D01*
X160276265Y-105234800D02*
X160419122Y-105282419D01*
X160419122Y-105282419D02*
X160657217Y-105282419D01*
X160657217Y-105282419D02*
X160752455Y-105234800D01*
X160752455Y-105234800D02*
X160800074Y-105187180D01*
X160800074Y-105187180D02*
X160847693Y-105091942D01*
X160847693Y-105091942D02*
X160847693Y-104996704D01*
X160847693Y-104996704D02*
X160800074Y-104901466D01*
X160800074Y-104901466D02*
X160752455Y-104853847D01*
X160752455Y-104853847D02*
X160657217Y-104806228D01*
X160657217Y-104806228D02*
X160466741Y-104758609D01*
X160466741Y-104758609D02*
X160371503Y-104710990D01*
X160371503Y-104710990D02*
X160323884Y-104663371D01*
X160323884Y-104663371D02*
X160276265Y-104568133D01*
X160276265Y-104568133D02*
X160276265Y-104472895D01*
X160276265Y-104472895D02*
X160323884Y-104377657D01*
X160323884Y-104377657D02*
X160371503Y-104330038D01*
X160371503Y-104330038D02*
X160466741Y-104282419D01*
X160466741Y-104282419D02*
X160704836Y-104282419D01*
X160704836Y-104282419D02*
X160847693Y-104330038D01*
X161276265Y-105282419D02*
X161276265Y-104282419D01*
X161276265Y-104282419D02*
X161514360Y-104282419D01*
X161514360Y-104282419D02*
X161657217Y-104330038D01*
X161657217Y-104330038D02*
X161752455Y-104425276D01*
X161752455Y-104425276D02*
X161800074Y-104520514D01*
X161800074Y-104520514D02*
X161847693Y-104710990D01*
X161847693Y-104710990D02*
X161847693Y-104853847D01*
X161847693Y-104853847D02*
X161800074Y-105044323D01*
X161800074Y-105044323D02*
X161752455Y-105139561D01*
X161752455Y-105139561D02*
X161657217Y-105234800D01*
X161657217Y-105234800D02*
X161514360Y-105282419D01*
X161514360Y-105282419D02*
X161276265Y-105282419D01*
X162228646Y-104996704D02*
X162704836Y-104996704D01*
X162133408Y-105282419D02*
X162466741Y-104282419D01*
X162466741Y-104282419D02*
X162800074Y-105282419D01*
X143067693Y-109410038D02*
X142972455Y-109362419D01*
X142972455Y-109362419D02*
X142829598Y-109362419D01*
X142829598Y-109362419D02*
X142686741Y-109410038D01*
X142686741Y-109410038D02*
X142591503Y-109505276D01*
X142591503Y-109505276D02*
X142543884Y-109600514D01*
X142543884Y-109600514D02*
X142496265Y-109790990D01*
X142496265Y-109790990D02*
X142496265Y-109933847D01*
X142496265Y-109933847D02*
X142543884Y-110124323D01*
X142543884Y-110124323D02*
X142591503Y-110219561D01*
X142591503Y-110219561D02*
X142686741Y-110314800D01*
X142686741Y-110314800D02*
X142829598Y-110362419D01*
X142829598Y-110362419D02*
X142924836Y-110362419D01*
X142924836Y-110362419D02*
X143067693Y-110314800D01*
X143067693Y-110314800D02*
X143115312Y-110267180D01*
X143115312Y-110267180D02*
X143115312Y-109933847D01*
X143115312Y-109933847D02*
X142924836Y-109933847D01*
X143543884Y-110362419D02*
X143543884Y-109362419D01*
X143543884Y-109362419D02*
X144115312Y-110362419D01*
X144115312Y-110362419D02*
X144115312Y-109362419D01*
X144591503Y-110362419D02*
X144591503Y-109362419D01*
X144591503Y-109362419D02*
X144829598Y-109362419D01*
X144829598Y-109362419D02*
X144972455Y-109410038D01*
X144972455Y-109410038D02*
X145067693Y-109505276D01*
X145067693Y-109505276D02*
X145115312Y-109600514D01*
X145115312Y-109600514D02*
X145162931Y-109790990D01*
X145162931Y-109790990D02*
X145162931Y-109933847D01*
X145162931Y-109933847D02*
X145115312Y-110124323D01*
X145115312Y-110124323D02*
X145067693Y-110219561D01*
X145067693Y-110219561D02*
X144972455Y-110314800D01*
X144972455Y-110314800D02*
X144829598Y-110362419D01*
X144829598Y-110362419D02*
X144591503Y-110362419D01*
X160895312Y-100202419D02*
X160561979Y-99726228D01*
X160323884Y-100202419D02*
X160323884Y-99202419D01*
X160323884Y-99202419D02*
X160704836Y-99202419D01*
X160704836Y-99202419D02*
X160800074Y-99250038D01*
X160800074Y-99250038D02*
X160847693Y-99297657D01*
X160847693Y-99297657D02*
X160895312Y-99392895D01*
X160895312Y-99392895D02*
X160895312Y-99535752D01*
X160895312Y-99535752D02*
X160847693Y-99630990D01*
X160847693Y-99630990D02*
X160800074Y-99678609D01*
X160800074Y-99678609D02*
X160704836Y-99726228D01*
X160704836Y-99726228D02*
X160323884Y-99726228D01*
X161228646Y-99202419D02*
X161895312Y-100202419D01*
X161895312Y-99202419D02*
X161228646Y-100202419D01*
X142496265Y-105234800D02*
X142639122Y-105282419D01*
X142639122Y-105282419D02*
X142877217Y-105282419D01*
X142877217Y-105282419D02*
X142972455Y-105234800D01*
X142972455Y-105234800D02*
X143020074Y-105187180D01*
X143020074Y-105187180D02*
X143067693Y-105091942D01*
X143067693Y-105091942D02*
X143067693Y-104996704D01*
X143067693Y-104996704D02*
X143020074Y-104901466D01*
X143020074Y-104901466D02*
X142972455Y-104853847D01*
X142972455Y-104853847D02*
X142877217Y-104806228D01*
X142877217Y-104806228D02*
X142686741Y-104758609D01*
X142686741Y-104758609D02*
X142591503Y-104710990D01*
X142591503Y-104710990D02*
X142543884Y-104663371D01*
X142543884Y-104663371D02*
X142496265Y-104568133D01*
X142496265Y-104568133D02*
X142496265Y-104472895D01*
X142496265Y-104472895D02*
X142543884Y-104377657D01*
X142543884Y-104377657D02*
X142591503Y-104330038D01*
X142591503Y-104330038D02*
X142686741Y-104282419D01*
X142686741Y-104282419D02*
X142924836Y-104282419D01*
X142924836Y-104282419D02*
X143067693Y-104330038D01*
X143496265Y-105282419D02*
X143496265Y-104282419D01*
X143496265Y-104282419D02*
X143734360Y-104282419D01*
X143734360Y-104282419D02*
X143877217Y-104330038D01*
X143877217Y-104330038D02*
X143972455Y-104425276D01*
X143972455Y-104425276D02*
X144020074Y-104520514D01*
X144020074Y-104520514D02*
X144067693Y-104710990D01*
X144067693Y-104710990D02*
X144067693Y-104853847D01*
X144067693Y-104853847D02*
X144020074Y-105044323D01*
X144020074Y-105044323D02*
X143972455Y-105139561D01*
X143972455Y-105139561D02*
X143877217Y-105234800D01*
X143877217Y-105234800D02*
X143734360Y-105282419D01*
X143734360Y-105282419D02*
X143496265Y-105282419D01*
X144496265Y-105282419D02*
X144496265Y-104282419D01*
X160276265Y-102694800D02*
X160419122Y-102742419D01*
X160419122Y-102742419D02*
X160657217Y-102742419D01*
X160657217Y-102742419D02*
X160752455Y-102694800D01*
X160752455Y-102694800D02*
X160800074Y-102647180D01*
X160800074Y-102647180D02*
X160847693Y-102551942D01*
X160847693Y-102551942D02*
X160847693Y-102456704D01*
X160847693Y-102456704D02*
X160800074Y-102361466D01*
X160800074Y-102361466D02*
X160752455Y-102313847D01*
X160752455Y-102313847D02*
X160657217Y-102266228D01*
X160657217Y-102266228D02*
X160466741Y-102218609D01*
X160466741Y-102218609D02*
X160371503Y-102170990D01*
X160371503Y-102170990D02*
X160323884Y-102123371D01*
X160323884Y-102123371D02*
X160276265Y-102028133D01*
X160276265Y-102028133D02*
X160276265Y-101932895D01*
X160276265Y-101932895D02*
X160323884Y-101837657D01*
X160323884Y-101837657D02*
X160371503Y-101790038D01*
X160371503Y-101790038D02*
X160466741Y-101742419D01*
X160466741Y-101742419D02*
X160704836Y-101742419D01*
X160704836Y-101742419D02*
X160847693Y-101790038D01*
X161847693Y-102647180D02*
X161800074Y-102694800D01*
X161800074Y-102694800D02*
X161657217Y-102742419D01*
X161657217Y-102742419D02*
X161561979Y-102742419D01*
X161561979Y-102742419D02*
X161419122Y-102694800D01*
X161419122Y-102694800D02*
X161323884Y-102599561D01*
X161323884Y-102599561D02*
X161276265Y-102504323D01*
X161276265Y-102504323D02*
X161228646Y-102313847D01*
X161228646Y-102313847D02*
X161228646Y-102170990D01*
X161228646Y-102170990D02*
X161276265Y-101980514D01*
X161276265Y-101980514D02*
X161323884Y-101885276D01*
X161323884Y-101885276D02*
X161419122Y-101790038D01*
X161419122Y-101790038D02*
X161561979Y-101742419D01*
X161561979Y-101742419D02*
X161657217Y-101742419D01*
X161657217Y-101742419D02*
X161800074Y-101790038D01*
X161800074Y-101790038D02*
X161847693Y-101837657D01*
X162752455Y-102742419D02*
X162276265Y-102742419D01*
X162276265Y-102742419D02*
X162276265Y-101742419D01*
X143115312Y-97567180D02*
X143067693Y-97614800D01*
X143067693Y-97614800D02*
X142924836Y-97662419D01*
X142924836Y-97662419D02*
X142829598Y-97662419D01*
X142829598Y-97662419D02*
X142686741Y-97614800D01*
X142686741Y-97614800D02*
X142591503Y-97519561D01*
X142591503Y-97519561D02*
X142543884Y-97424323D01*
X142543884Y-97424323D02*
X142496265Y-97233847D01*
X142496265Y-97233847D02*
X142496265Y-97090990D01*
X142496265Y-97090990D02*
X142543884Y-96900514D01*
X142543884Y-96900514D02*
X142591503Y-96805276D01*
X142591503Y-96805276D02*
X142686741Y-96710038D01*
X142686741Y-96710038D02*
X142829598Y-96662419D01*
X142829598Y-96662419D02*
X142924836Y-96662419D01*
X142924836Y-96662419D02*
X143067693Y-96710038D01*
X143067693Y-96710038D02*
X143115312Y-96757657D01*
X143496265Y-97614800D02*
X143639122Y-97662419D01*
X143639122Y-97662419D02*
X143877217Y-97662419D01*
X143877217Y-97662419D02*
X143972455Y-97614800D01*
X143972455Y-97614800D02*
X144020074Y-97567180D01*
X144020074Y-97567180D02*
X144067693Y-97471942D01*
X144067693Y-97471942D02*
X144067693Y-97376704D01*
X144067693Y-97376704D02*
X144020074Y-97281466D01*
X144020074Y-97281466D02*
X143972455Y-97233847D01*
X143972455Y-97233847D02*
X143877217Y-97186228D01*
X143877217Y-97186228D02*
X143686741Y-97138609D01*
X143686741Y-97138609D02*
X143591503Y-97090990D01*
X143591503Y-97090990D02*
X143543884Y-97043371D01*
X143543884Y-97043371D02*
X143496265Y-96948133D01*
X143496265Y-96948133D02*
X143496265Y-96852895D01*
X143496265Y-96852895D02*
X143543884Y-96757657D01*
X143543884Y-96757657D02*
X143591503Y-96710038D01*
X143591503Y-96710038D02*
X143686741Y-96662419D01*
X143686741Y-96662419D02*
X143924836Y-96662419D01*
X143924836Y-96662419D02*
X144067693Y-96710038D01*
X160181027Y-96662419D02*
X160752455Y-96662419D01*
X160466741Y-97662419D02*
X160466741Y-96662419D01*
X160990551Y-96662419D02*
X161657217Y-97662419D01*
X161657217Y-96662419D02*
X160990551Y-97662419D01*
X160800074Y-106822419D02*
X160323884Y-106822419D01*
X160323884Y-106822419D02*
X160276265Y-107298609D01*
X160276265Y-107298609D02*
X160323884Y-107250990D01*
X160323884Y-107250990D02*
X160419122Y-107203371D01*
X160419122Y-107203371D02*
X160657217Y-107203371D01*
X160657217Y-107203371D02*
X160752455Y-107250990D01*
X160752455Y-107250990D02*
X160800074Y-107298609D01*
X160800074Y-107298609D02*
X160847693Y-107393847D01*
X160847693Y-107393847D02*
X160847693Y-107631942D01*
X160847693Y-107631942D02*
X160800074Y-107727180D01*
X160800074Y-107727180D02*
X160752455Y-107774800D01*
X160752455Y-107774800D02*
X160657217Y-107822419D01*
X160657217Y-107822419D02*
X160419122Y-107822419D01*
X160419122Y-107822419D02*
X160323884Y-107774800D01*
X160323884Y-107774800D02*
X160276265Y-107727180D01*
X161133408Y-106822419D02*
X161466741Y-107822419D01*
X161466741Y-107822419D02*
X161800074Y-106822419D01*
X142496265Y-100154800D02*
X142639122Y-100202419D01*
X142639122Y-100202419D02*
X142877217Y-100202419D01*
X142877217Y-100202419D02*
X142972455Y-100154800D01*
X142972455Y-100154800D02*
X143020074Y-100107180D01*
X143020074Y-100107180D02*
X143067693Y-100011942D01*
X143067693Y-100011942D02*
X143067693Y-99916704D01*
X143067693Y-99916704D02*
X143020074Y-99821466D01*
X143020074Y-99821466D02*
X142972455Y-99773847D01*
X142972455Y-99773847D02*
X142877217Y-99726228D01*
X142877217Y-99726228D02*
X142686741Y-99678609D01*
X142686741Y-99678609D02*
X142591503Y-99630990D01*
X142591503Y-99630990D02*
X142543884Y-99583371D01*
X142543884Y-99583371D02*
X142496265Y-99488133D01*
X142496265Y-99488133D02*
X142496265Y-99392895D01*
X142496265Y-99392895D02*
X142543884Y-99297657D01*
X142543884Y-99297657D02*
X142591503Y-99250038D01*
X142591503Y-99250038D02*
X142686741Y-99202419D01*
X142686741Y-99202419D02*
X142924836Y-99202419D01*
X142924836Y-99202419D02*
X143067693Y-99250038D01*
X144067693Y-100107180D02*
X144020074Y-100154800D01*
X144020074Y-100154800D02*
X143877217Y-100202419D01*
X143877217Y-100202419D02*
X143781979Y-100202419D01*
X143781979Y-100202419D02*
X143639122Y-100154800D01*
X143639122Y-100154800D02*
X143543884Y-100059561D01*
X143543884Y-100059561D02*
X143496265Y-99964323D01*
X143496265Y-99964323D02*
X143448646Y-99773847D01*
X143448646Y-99773847D02*
X143448646Y-99630990D01*
X143448646Y-99630990D02*
X143496265Y-99440514D01*
X143496265Y-99440514D02*
X143543884Y-99345276D01*
X143543884Y-99345276D02*
X143639122Y-99250038D01*
X143639122Y-99250038D02*
X143781979Y-99202419D01*
X143781979Y-99202419D02*
X143877217Y-99202419D01*
X143877217Y-99202419D02*
X144020074Y-99250038D01*
X144020074Y-99250038D02*
X144067693Y-99297657D01*
X144496265Y-100202419D02*
X144496265Y-99202419D01*
X145067693Y-100202419D02*
X144639122Y-99630990D01*
X145067693Y-99202419D02*
X144496265Y-99773847D01*
X142496265Y-102694800D02*
X142639122Y-102742419D01*
X142639122Y-102742419D02*
X142877217Y-102742419D01*
X142877217Y-102742419D02*
X142972455Y-102694800D01*
X142972455Y-102694800D02*
X143020074Y-102647180D01*
X143020074Y-102647180D02*
X143067693Y-102551942D01*
X143067693Y-102551942D02*
X143067693Y-102456704D01*
X143067693Y-102456704D02*
X143020074Y-102361466D01*
X143020074Y-102361466D02*
X142972455Y-102313847D01*
X142972455Y-102313847D02*
X142877217Y-102266228D01*
X142877217Y-102266228D02*
X142686741Y-102218609D01*
X142686741Y-102218609D02*
X142591503Y-102170990D01*
X142591503Y-102170990D02*
X142543884Y-102123371D01*
X142543884Y-102123371D02*
X142496265Y-102028133D01*
X142496265Y-102028133D02*
X142496265Y-101932895D01*
X142496265Y-101932895D02*
X142543884Y-101837657D01*
X142543884Y-101837657D02*
X142591503Y-101790038D01*
X142591503Y-101790038D02*
X142686741Y-101742419D01*
X142686741Y-101742419D02*
X142924836Y-101742419D01*
X142924836Y-101742419D02*
X143067693Y-101790038D01*
X143496265Y-102742419D02*
X143496265Y-101742419D01*
X143496265Y-101742419D02*
X143734360Y-101742419D01*
X143734360Y-101742419D02*
X143877217Y-101790038D01*
X143877217Y-101790038D02*
X143972455Y-101885276D01*
X143972455Y-101885276D02*
X144020074Y-101980514D01*
X144020074Y-101980514D02*
X144067693Y-102170990D01*
X144067693Y-102170990D02*
X144067693Y-102313847D01*
X144067693Y-102313847D02*
X144020074Y-102504323D01*
X144020074Y-102504323D02*
X143972455Y-102599561D01*
X143972455Y-102599561D02*
X143877217Y-102694800D01*
X143877217Y-102694800D02*
X143734360Y-102742419D01*
X143734360Y-102742419D02*
X143496265Y-102742419D01*
X144686741Y-101742419D02*
X144877217Y-101742419D01*
X144877217Y-101742419D02*
X144972455Y-101790038D01*
X144972455Y-101790038D02*
X145067693Y-101885276D01*
X145067693Y-101885276D02*
X145115312Y-102075752D01*
X145115312Y-102075752D02*
X145115312Y-102409085D01*
X145115312Y-102409085D02*
X145067693Y-102599561D01*
X145067693Y-102599561D02*
X144972455Y-102694800D01*
X144972455Y-102694800D02*
X144877217Y-102742419D01*
X144877217Y-102742419D02*
X144686741Y-102742419D01*
X144686741Y-102742419D02*
X144591503Y-102694800D01*
X144591503Y-102694800D02*
X144496265Y-102599561D01*
X144496265Y-102599561D02*
X144448646Y-102409085D01*
X144448646Y-102409085D02*
X144448646Y-102075752D01*
X144448646Y-102075752D02*
X144496265Y-101885276D01*
X144496265Y-101885276D02*
X144591503Y-101790038D01*
X144591503Y-101790038D02*
X144686741Y-101742419D01*
X160323884Y-95122419D02*
X160323884Y-94122419D01*
X160800074Y-95122419D02*
X160800074Y-94122419D01*
X160800074Y-94122419D02*
X161371502Y-95122419D01*
X161371502Y-95122419D02*
X161371502Y-94122419D01*
X161704836Y-94122419D02*
X162276264Y-94122419D01*
X161990550Y-95122419D02*
X161990550Y-94122419D01*
X159053884Y-92582419D02*
X159053884Y-91582419D01*
X159053884Y-91582419D02*
X159434836Y-91582419D01*
X159434836Y-91582419D02*
X159530074Y-91630038D01*
X159530074Y-91630038D02*
X159577693Y-91677657D01*
X159577693Y-91677657D02*
X159625312Y-91772895D01*
X159625312Y-91772895D02*
X159625312Y-91915752D01*
X159625312Y-91915752D02*
X159577693Y-92010990D01*
X159577693Y-92010990D02*
X159530074Y-92058609D01*
X159530074Y-92058609D02*
X159434836Y-92106228D01*
X159434836Y-92106228D02*
X159053884Y-92106228D01*
X159958646Y-91582419D02*
X160196741Y-92582419D01*
X160196741Y-92582419D02*
X160387217Y-91868133D01*
X160387217Y-91868133D02*
X160577693Y-92582419D01*
X160577693Y-92582419D02*
X160815789Y-91582419D01*
X161196741Y-92582419D02*
X161196741Y-91582419D01*
X161196741Y-91582419D02*
X161530074Y-92296704D01*
X161530074Y-92296704D02*
X161863407Y-91582419D01*
X161863407Y-91582419D02*
X161863407Y-92582419D01*
D11*
X154265333Y-94847580D02*
X154217714Y-94895200D01*
X154217714Y-94895200D02*
X154074857Y-94942819D01*
X154074857Y-94942819D02*
X153979619Y-94942819D01*
X153979619Y-94942819D02*
X153836762Y-94895200D01*
X153836762Y-94895200D02*
X153741524Y-94799961D01*
X153741524Y-94799961D02*
X153693905Y-94704723D01*
X153693905Y-94704723D02*
X153646286Y-94514247D01*
X153646286Y-94514247D02*
X153646286Y-94371390D01*
X153646286Y-94371390D02*
X153693905Y-94180914D01*
X153693905Y-94180914D02*
X153741524Y-94085676D01*
X153741524Y-94085676D02*
X153836762Y-93990438D01*
X153836762Y-93990438D02*
X153979619Y-93942819D01*
X153979619Y-93942819D02*
X154074857Y-93942819D01*
X154074857Y-93942819D02*
X154217714Y-93990438D01*
X154217714Y-93990438D02*
X154265333Y-94038057D01*
X154598667Y-93942819D02*
X155265333Y-93942819D01*
X155265333Y-93942819D02*
X154836762Y-94942819D01*
X157201819Y-94019666D02*
X156725628Y-94352999D01*
X157201819Y-94591094D02*
X156201819Y-94591094D01*
X156201819Y-94591094D02*
X156201819Y-94210142D01*
X156201819Y-94210142D02*
X156249438Y-94114904D01*
X156249438Y-94114904D02*
X156297057Y-94067285D01*
X156297057Y-94067285D02*
X156392295Y-94019666D01*
X156392295Y-94019666D02*
X156535152Y-94019666D01*
X156535152Y-94019666D02*
X156630390Y-94067285D01*
X156630390Y-94067285D02*
X156678009Y-94114904D01*
X156678009Y-94114904D02*
X156725628Y-94210142D01*
X156725628Y-94210142D02*
X156725628Y-94591094D01*
X156201819Y-93686332D02*
X156201819Y-93067285D01*
X156201819Y-93067285D02*
X156582771Y-93400618D01*
X156582771Y-93400618D02*
X156582771Y-93257761D01*
X156582771Y-93257761D02*
X156630390Y-93162523D01*
X156630390Y-93162523D02*
X156678009Y-93114904D01*
X156678009Y-93114904D02*
X156773247Y-93067285D01*
X156773247Y-93067285D02*
X157011342Y-93067285D01*
X157011342Y-93067285D02*
X157106580Y-93114904D01*
X157106580Y-93114904D02*
X157154200Y-93162523D01*
X157154200Y-93162523D02*
X157201819Y-93257761D01*
X157201819Y-93257761D02*
X157201819Y-93543475D01*
X157201819Y-93543475D02*
X157154200Y-93638713D01*
X157154200Y-93638713D02*
X157106580Y-93686332D01*
X146917580Y-95289666D02*
X146965200Y-95337285D01*
X146965200Y-95337285D02*
X147012819Y-95480142D01*
X147012819Y-95480142D02*
X147012819Y-95575380D01*
X147012819Y-95575380D02*
X146965200Y-95718237D01*
X146965200Y-95718237D02*
X146869961Y-95813475D01*
X146869961Y-95813475D02*
X146774723Y-95861094D01*
X146774723Y-95861094D02*
X146584247Y-95908713D01*
X146584247Y-95908713D02*
X146441390Y-95908713D01*
X146441390Y-95908713D02*
X146250914Y-95861094D01*
X146250914Y-95861094D02*
X146155676Y-95813475D01*
X146155676Y-95813475D02*
X146060438Y-95718237D01*
X146060438Y-95718237D02*
X146012819Y-95575380D01*
X146012819Y-95575380D02*
X146012819Y-95480142D01*
X146012819Y-95480142D02*
X146060438Y-95337285D01*
X146060438Y-95337285D02*
X146108057Y-95289666D01*
X146012819Y-94384904D02*
X146012819Y-94861094D01*
X146012819Y-94861094D02*
X146489009Y-94908713D01*
X146489009Y-94908713D02*
X146441390Y-94861094D01*
X146441390Y-94861094D02*
X146393771Y-94765856D01*
X146393771Y-94765856D02*
X146393771Y-94527761D01*
X146393771Y-94527761D02*
X146441390Y-94432523D01*
X146441390Y-94432523D02*
X146489009Y-94384904D01*
X146489009Y-94384904D02*
X146584247Y-94337285D01*
X146584247Y-94337285D02*
X146822342Y-94337285D01*
X146822342Y-94337285D02*
X146917580Y-94384904D01*
X146917580Y-94384904D02*
X146965200Y-94432523D01*
X146965200Y-94432523D02*
X147012819Y-94527761D01*
X147012819Y-94527761D02*
X147012819Y-94765856D01*
X147012819Y-94765856D02*
X146965200Y-94861094D01*
X146965200Y-94861094D02*
X146917580Y-94908713D01*
X159077819Y-94019666D02*
X158601628Y-94352999D01*
X159077819Y-94591094D02*
X158077819Y-94591094D01*
X158077819Y-94591094D02*
X158077819Y-94210142D01*
X158077819Y-94210142D02*
X158125438Y-94114904D01*
X158125438Y-94114904D02*
X158173057Y-94067285D01*
X158173057Y-94067285D02*
X158268295Y-94019666D01*
X158268295Y-94019666D02*
X158411152Y-94019666D01*
X158411152Y-94019666D02*
X158506390Y-94067285D01*
X158506390Y-94067285D02*
X158554009Y-94114904D01*
X158554009Y-94114904D02*
X158601628Y-94210142D01*
X158601628Y-94210142D02*
X158601628Y-94591094D01*
X158411152Y-93162523D02*
X159077819Y-93162523D01*
X158030200Y-93400618D02*
X158744485Y-93638713D01*
X158744485Y-93638713D02*
X158744485Y-93019666D01*
X147169333Y-104594819D02*
X146836000Y-104118628D01*
X146597905Y-104594819D02*
X146597905Y-103594819D01*
X146597905Y-103594819D02*
X146978857Y-103594819D01*
X146978857Y-103594819D02*
X147074095Y-103642438D01*
X147074095Y-103642438D02*
X147121714Y-103690057D01*
X147121714Y-103690057D02*
X147169333Y-103785295D01*
X147169333Y-103785295D02*
X147169333Y-103928152D01*
X147169333Y-103928152D02*
X147121714Y-104023390D01*
X147121714Y-104023390D02*
X147074095Y-104071009D01*
X147074095Y-104071009D02*
X146978857Y-104118628D01*
X146978857Y-104118628D02*
X146597905Y-104118628D01*
X148121714Y-104594819D02*
X147550286Y-104594819D01*
X147836000Y-104594819D02*
X147836000Y-103594819D01*
X147836000Y-103594819D02*
X147740762Y-103737676D01*
X147740762Y-103737676D02*
X147645524Y-103832914D01*
X147645524Y-103832914D02*
X147550286Y-103880533D01*
X146137333Y-112119580D02*
X146089714Y-112167200D01*
X146089714Y-112167200D02*
X145946857Y-112214819D01*
X145946857Y-112214819D02*
X145851619Y-112214819D01*
X145851619Y-112214819D02*
X145708762Y-112167200D01*
X145708762Y-112167200D02*
X145613524Y-112071961D01*
X145613524Y-112071961D02*
X145565905Y-111976723D01*
X145565905Y-111976723D02*
X145518286Y-111786247D01*
X145518286Y-111786247D02*
X145518286Y-111643390D01*
X145518286Y-111643390D02*
X145565905Y-111452914D01*
X145565905Y-111452914D02*
X145613524Y-111357676D01*
X145613524Y-111357676D02*
X145708762Y-111262438D01*
X145708762Y-111262438D02*
X145851619Y-111214819D01*
X145851619Y-111214819D02*
X145946857Y-111214819D01*
X145946857Y-111214819D02*
X146089714Y-111262438D01*
X146089714Y-111262438D02*
X146137333Y-111310057D01*
X146470667Y-111214819D02*
X147089714Y-111214819D01*
X147089714Y-111214819D02*
X146756381Y-111595771D01*
X146756381Y-111595771D02*
X146899238Y-111595771D01*
X146899238Y-111595771D02*
X146994476Y-111643390D01*
X146994476Y-111643390D02*
X147042095Y-111691009D01*
X147042095Y-111691009D02*
X147089714Y-111786247D01*
X147089714Y-111786247D02*
X147089714Y-112024342D01*
X147089714Y-112024342D02*
X147042095Y-112119580D01*
X147042095Y-112119580D02*
X146994476Y-112167200D01*
X146994476Y-112167200D02*
X146899238Y-112214819D01*
X146899238Y-112214819D02*
X146613524Y-112214819D01*
X146613524Y-112214819D02*
X146518286Y-112167200D01*
X146518286Y-112167200D02*
X146470667Y-112119580D01*
X146774819Y-87963333D02*
X147489104Y-87963333D01*
X147489104Y-87963333D02*
X147631961Y-88010952D01*
X147631961Y-88010952D02*
X147727200Y-88106190D01*
X147727200Y-88106190D02*
X147774819Y-88249047D01*
X147774819Y-88249047D02*
X147774819Y-88344285D01*
X146870057Y-87534761D02*
X146822438Y-87487142D01*
X146822438Y-87487142D02*
X146774819Y-87391904D01*
X146774819Y-87391904D02*
X146774819Y-87153809D01*
X146774819Y-87153809D02*
X146822438Y-87058571D01*
X146822438Y-87058571D02*
X146870057Y-87010952D01*
X146870057Y-87010952D02*
X146965295Y-86963333D01*
X146965295Y-86963333D02*
X147060533Y-86963333D01*
X147060533Y-86963333D02*
X147203390Y-87010952D01*
X147203390Y-87010952D02*
X147774819Y-87582380D01*
X147774819Y-87582380D02*
X147774819Y-86963333D01*
X148949580Y-95289666D02*
X148997200Y-95337285D01*
X148997200Y-95337285D02*
X149044819Y-95480142D01*
X149044819Y-95480142D02*
X149044819Y-95575380D01*
X149044819Y-95575380D02*
X148997200Y-95718237D01*
X148997200Y-95718237D02*
X148901961Y-95813475D01*
X148901961Y-95813475D02*
X148806723Y-95861094D01*
X148806723Y-95861094D02*
X148616247Y-95908713D01*
X148616247Y-95908713D02*
X148473390Y-95908713D01*
X148473390Y-95908713D02*
X148282914Y-95861094D01*
X148282914Y-95861094D02*
X148187676Y-95813475D01*
X148187676Y-95813475D02*
X148092438Y-95718237D01*
X148092438Y-95718237D02*
X148044819Y-95575380D01*
X148044819Y-95575380D02*
X148044819Y-95480142D01*
X148044819Y-95480142D02*
X148092438Y-95337285D01*
X148092438Y-95337285D02*
X148140057Y-95289666D01*
X148378152Y-94432523D02*
X149044819Y-94432523D01*
X147997200Y-94670618D02*
X148711485Y-94908713D01*
X148711485Y-94908713D02*
X148711485Y-94289666D01*
X156823580Y-102782666D02*
X156871200Y-102830285D01*
X156871200Y-102830285D02*
X156918819Y-102973142D01*
X156918819Y-102973142D02*
X156918819Y-103068380D01*
X156918819Y-103068380D02*
X156871200Y-103211237D01*
X156871200Y-103211237D02*
X156775961Y-103306475D01*
X156775961Y-103306475D02*
X156680723Y-103354094D01*
X156680723Y-103354094D02*
X156490247Y-103401713D01*
X156490247Y-103401713D02*
X156347390Y-103401713D01*
X156347390Y-103401713D02*
X156156914Y-103354094D01*
X156156914Y-103354094D02*
X156061676Y-103306475D01*
X156061676Y-103306475D02*
X155966438Y-103211237D01*
X155966438Y-103211237D02*
X155918819Y-103068380D01*
X155918819Y-103068380D02*
X155918819Y-102973142D01*
X155918819Y-102973142D02*
X155966438Y-102830285D01*
X155966438Y-102830285D02*
X156014057Y-102782666D01*
X156918819Y-101830285D02*
X156918819Y-102401713D01*
X156918819Y-102115999D02*
X155918819Y-102115999D01*
X155918819Y-102115999D02*
X156061676Y-102211237D01*
X156061676Y-102211237D02*
X156156914Y-102306475D01*
X156156914Y-102306475D02*
X156204533Y-102401713D01*
X154394819Y-100075904D02*
X155204342Y-100075904D01*
X155204342Y-100075904D02*
X155299580Y-100028285D01*
X155299580Y-100028285D02*
X155347200Y-99980666D01*
X155347200Y-99980666D02*
X155394819Y-99885428D01*
X155394819Y-99885428D02*
X155394819Y-99694952D01*
X155394819Y-99694952D02*
X155347200Y-99599714D01*
X155347200Y-99599714D02*
X155299580Y-99552095D01*
X155299580Y-99552095D02*
X155204342Y-99504476D01*
X155204342Y-99504476D02*
X154394819Y-99504476D01*
X155394819Y-98504476D02*
X155394819Y-99075904D01*
X155394819Y-98790190D02*
X154394819Y-98790190D01*
X154394819Y-98790190D02*
X154537676Y-98885428D01*
X154537676Y-98885428D02*
X154632914Y-98980666D01*
X154632914Y-98980666D02*
X154680533Y-99075904D01*
X141840833Y-88468580D02*
X141793214Y-88516200D01*
X141793214Y-88516200D02*
X141650357Y-88563819D01*
X141650357Y-88563819D02*
X141555119Y-88563819D01*
X141555119Y-88563819D02*
X141412262Y-88516200D01*
X141412262Y-88516200D02*
X141317024Y-88420961D01*
X141317024Y-88420961D02*
X141269405Y-88325723D01*
X141269405Y-88325723D02*
X141221786Y-88135247D01*
X141221786Y-88135247D02*
X141221786Y-87992390D01*
X141221786Y-87992390D02*
X141269405Y-87801914D01*
X141269405Y-87801914D02*
X141317024Y-87706676D01*
X141317024Y-87706676D02*
X141412262Y-87611438D01*
X141412262Y-87611438D02*
X141555119Y-87563819D01*
X141555119Y-87563819D02*
X141650357Y-87563819D01*
X141650357Y-87563819D02*
X141793214Y-87611438D01*
X141793214Y-87611438D02*
X141840833Y-87659057D01*
X142697976Y-87563819D02*
X142507500Y-87563819D01*
X142507500Y-87563819D02*
X142412262Y-87611438D01*
X142412262Y-87611438D02*
X142364643Y-87659057D01*
X142364643Y-87659057D02*
X142269405Y-87801914D01*
X142269405Y-87801914D02*
X142221786Y-87992390D01*
X142221786Y-87992390D02*
X142221786Y-88373342D01*
X142221786Y-88373342D02*
X142269405Y-88468580D01*
X142269405Y-88468580D02*
X142317024Y-88516200D01*
X142317024Y-88516200D02*
X142412262Y-88563819D01*
X142412262Y-88563819D02*
X142602738Y-88563819D01*
X142602738Y-88563819D02*
X142697976Y-88516200D01*
X142697976Y-88516200D02*
X142745595Y-88468580D01*
X142745595Y-88468580D02*
X142793214Y-88373342D01*
X142793214Y-88373342D02*
X142793214Y-88135247D01*
X142793214Y-88135247D02*
X142745595Y-88040009D01*
X142745595Y-88040009D02*
X142697976Y-87992390D01*
X142697976Y-87992390D02*
X142602738Y-87944771D01*
X142602738Y-87944771D02*
X142412262Y-87944771D01*
X142412262Y-87944771D02*
X142317024Y-87992390D01*
X142317024Y-87992390D02*
X142269405Y-88040009D01*
X142269405Y-88040009D02*
X142221786Y-88135247D01*
D12*
%TO.C,C8*%
X151101248Y-90705000D02*
X151623752Y-90705000D01*
X151101248Y-92175000D02*
X151623752Y-92175000D01*
%TO.C,R2*%
X151742224Y-96628500D02*
X151232776Y-96628500D01*
X151742224Y-97673500D02*
X151232776Y-97673500D01*
%TO.C,C2*%
X153909752Y-104929000D02*
X153387248Y-104929000D01*
X153909752Y-106399000D02*
X153387248Y-106399000D01*
D13*
%TO.C,J1*%
G36*
X154485857Y-107644881D02*
G01*
X154485857Y-107757536D01*
X154358182Y-107757536D01*
X154230506Y-107757536D01*
X154230506Y-107644881D01*
X154230506Y-107532226D01*
X154358182Y-107532226D01*
X154485857Y-107532226D01*
X154485857Y-107644881D01*
G37*
G36*
X154485857Y-108403426D02*
G01*
X154485857Y-108854047D01*
X154358182Y-108854047D01*
X154230506Y-108854047D01*
X154230506Y-108403426D01*
X154230506Y-107952805D01*
X154358182Y-107952805D01*
X154485857Y-107952805D01*
X154485857Y-108403426D01*
G37*
G36*
X155976662Y-107953026D02*
G01*
X156081033Y-107953677D01*
X156160030Y-107956097D01*
X156218311Y-107961296D01*
X156260533Y-107970280D01*
X156291355Y-107984059D01*
X156315434Y-108003641D01*
X156337429Y-108030033D01*
X156338385Y-108031318D01*
X156355412Y-108062477D01*
X156366590Y-108105712D01*
X156373560Y-108168499D01*
X156375513Y-108200301D01*
X156382233Y-108328322D01*
X156260183Y-108328322D01*
X156138134Y-108328322D01*
X156138134Y-108248713D01*
X156134914Y-108200216D01*
X156126673Y-108163138D01*
X156120109Y-108151078D01*
X156095181Y-108140364D01*
X156052731Y-108133908D01*
X156029985Y-108133053D01*
X155957886Y-108133053D01*
X155957886Y-108493550D01*
X155957886Y-108854047D01*
X155837720Y-108854047D01*
X155717555Y-108854047D01*
X155717555Y-108403426D01*
X155717555Y-107952805D01*
X155976662Y-107953026D01*
G37*
G36*
X154940000Y-107950000D02*
G01*
X154943989Y-108367775D01*
X155128363Y-108160290D01*
X155312738Y-107952805D01*
X155462574Y-107952805D01*
X155525543Y-107953531D01*
X155575471Y-107955488D01*
X155605990Y-107958346D01*
X155612410Y-107960598D01*
X155602549Y-107973385D01*
X155575068Y-108004430D01*
X155533121Y-108050290D01*
X155479862Y-108107521D01*
X155418445Y-108172681D01*
X155410462Y-108181095D01*
X155208515Y-108393798D01*
X155360811Y-108560084D01*
X155420208Y-108624802D01*
X155477859Y-108687375D01*
X155528157Y-108741734D01*
X155565497Y-108781813D01*
X155573396Y-108790209D01*
X155633685Y-108854047D01*
X155461575Y-108853375D01*
X155289465Y-108852703D01*
X155116727Y-108641464D01*
X154943989Y-108430226D01*
X154939821Y-108642136D01*
X154935654Y-108854047D01*
X154815900Y-108854047D01*
X154696147Y-108854047D01*
X154696147Y-108193136D01*
X154696147Y-107532226D01*
X154816079Y-107532226D01*
X154936011Y-107532226D01*
X154940000Y-107950000D01*
G37*
G36*
X153257915Y-107952889D02*
G01*
X153398898Y-107953377D01*
X153525018Y-107954739D01*
X153633388Y-107956898D01*
X153721122Y-107959773D01*
X153785334Y-107963287D01*
X153823137Y-107967359D01*
X153828235Y-107968487D01*
X153878089Y-107989308D01*
X153926454Y-108019810D01*
X153931668Y-108024029D01*
X153959817Y-108049682D01*
X153981842Y-108076330D01*
X153998571Y-108107995D01*
X154010833Y-108148696D01*
X154019456Y-108202455D01*
X154025269Y-108273293D01*
X154029101Y-108365231D01*
X154031781Y-108482289D01*
X154032307Y-108512326D01*
X154038090Y-108854047D01*
X153908987Y-108854047D01*
X153779885Y-108854047D01*
X153779885Y-108540276D01*
X153779725Y-108424397D01*
X153778251Y-108334993D01*
X153773975Y-108268498D01*
X153765405Y-108221346D01*
X153751053Y-108189972D01*
X153729428Y-108170809D01*
X153699041Y-108160292D01*
X153658401Y-108154854D01*
X153617570Y-108151769D01*
X153509512Y-108144038D01*
X153509512Y-108499042D01*
X153509512Y-108854047D01*
X153381836Y-108854047D01*
X153254160Y-108854047D01*
X153254160Y-108501061D01*
X153254160Y-108148074D01*
X153118974Y-108148074D01*
X152983788Y-108148074D01*
X152983788Y-108501061D01*
X152983788Y-108854047D01*
X152863622Y-108854047D01*
X152743457Y-108854047D01*
X152743457Y-108403426D01*
X152743457Y-107952805D01*
X153257915Y-107952889D01*
G37*
G36*
X157078043Y-107948702D02*
G01*
X157182374Y-107987894D01*
X157272248Y-108046992D01*
X157315069Y-108089504D01*
X157371260Y-108176390D01*
X157406016Y-108276378D01*
X157419704Y-108383393D01*
X157412693Y-108491360D01*
X157385349Y-108594204D01*
X157338041Y-108685849D01*
X157274666Y-108757243D01*
X157187348Y-108813689D01*
X157083457Y-108851393D01*
X156970805Y-108869159D01*
X156857201Y-108865794D01*
X156750458Y-108840103D01*
X156745336Y-108838171D01*
X156645130Y-108784573D01*
X156565261Y-108709960D01*
X156507395Y-108616853D01*
X156473203Y-108507776D01*
X156464034Y-108412867D01*
X156467510Y-108373320D01*
X156720207Y-108373320D01*
X156723053Y-108453718D01*
X156743189Y-108529687D01*
X156780266Y-108594622D01*
X156833933Y-108641923D01*
X156844188Y-108647489D01*
X156904230Y-108669390D01*
X156960712Y-108669448D01*
X157024163Y-108647259D01*
X157038837Y-108640002D01*
X157097714Y-108599105D01*
X157135721Y-108545094D01*
X157155353Y-108473081D01*
X157159518Y-108403660D01*
X157150301Y-108308389D01*
X157121893Y-108234230D01*
X157073086Y-108178229D01*
X157064561Y-108171673D01*
X157010387Y-108147651D01*
X156943280Y-108139397D01*
X156875878Y-108146918D01*
X156820822Y-108170217D01*
X156818922Y-108171575D01*
X156767792Y-108225645D01*
X156735003Y-108295095D01*
X156720207Y-108373320D01*
X156467510Y-108373320D01*
X156475084Y-108287160D01*
X156510713Y-108178366D01*
X156570014Y-108087589D01*
X156652081Y-108015933D01*
X156756007Y-107964504D01*
X156853121Y-107938874D01*
X156966034Y-107931625D01*
X157078043Y-107948702D01*
G37*
G36*
X154681127Y-109873404D02*
G01*
X154681563Y-110032214D01*
X154683034Y-110163902D01*
X154685780Y-110271377D01*
X154690043Y-110357549D01*
X154696063Y-110425327D01*
X154704083Y-110477619D01*
X154714344Y-110517336D01*
X154727086Y-110547387D01*
X154738525Y-110565478D01*
X154799898Y-110624020D01*
X154881027Y-110663446D01*
X154977511Y-110682501D01*
X155084950Y-110679929D01*
X155120332Y-110674444D01*
X155197341Y-110654937D01*
X155252804Y-110626175D01*
X155295031Y-110582274D01*
X155327017Y-110528074D01*
X155364568Y-110453751D01*
X155369624Y-109916761D01*
X155374679Y-109379771D01*
X155540184Y-109379771D01*
X155705689Y-109379771D01*
X155698858Y-109961823D01*
X155696878Y-110120771D01*
X155694702Y-110252789D01*
X155691865Y-110360988D01*
X155687901Y-110448479D01*
X155682346Y-110518373D01*
X155674735Y-110573779D01*
X155664602Y-110617810D01*
X155651485Y-110653574D01*
X155634916Y-110684184D01*
X155614432Y-110712750D01*
X155589568Y-110742382D01*
X155580706Y-110752489D01*
X155531092Y-110799110D01*
X155471277Y-110842256D01*
X155440756Y-110859438D01*
X155334596Y-110898972D01*
X155208977Y-110925282D01*
X155071771Y-110937616D01*
X154930850Y-110935222D01*
X154807711Y-110919918D01*
X154673901Y-110883948D01*
X154561882Y-110828898D01*
X154472548Y-110755379D01*
X154406795Y-110664000D01*
X154393680Y-110637410D01*
X154384730Y-110616985D01*
X154377400Y-110597065D01*
X154371501Y-110574505D01*
X154366843Y-110546162D01*
X154363237Y-110508891D01*
X154360494Y-110459550D01*
X154358425Y-110394993D01*
X154356840Y-110312078D01*
X154355551Y-110207660D01*
X154354368Y-110078596D01*
X154353481Y-109969334D01*
X154348781Y-109379771D01*
X154514954Y-109379771D01*
X154681127Y-109379771D01*
X154681127Y-109873404D01*
G37*
G36*
X153381830Y-109380152D02*
G01*
X153508541Y-109381565D01*
X153611992Y-109384421D01*
X153695572Y-109389128D01*
X153762669Y-109396095D01*
X153816670Y-109405731D01*
X153860965Y-109418445D01*
X153898940Y-109434646D01*
X153933983Y-109454743D01*
X153952623Y-109467180D01*
X154015551Y-109523799D01*
X154058642Y-109594777D01*
X154083984Y-109684560D01*
X154092497Y-109764926D01*
X154090765Y-109863982D01*
X154071804Y-109944394D01*
X154032446Y-110014067D01*
X153969522Y-110080902D01*
X153963798Y-110085991D01*
X153929409Y-110119799D01*
X153909971Y-110146190D01*
X153908728Y-110158338D01*
X153928566Y-110173789D01*
X153962488Y-110199175D01*
X153979048Y-110211364D01*
X154043010Y-110276172D01*
X154085404Y-110359093D01*
X154105223Y-110456340D01*
X154101463Y-110564123D01*
X154089123Y-110625965D01*
X154059090Y-110714092D01*
X154017404Y-110780240D01*
X153958600Y-110831825D01*
X153920632Y-110854713D01*
X153879908Y-110873804D01*
X153832796Y-110889390D01*
X153776075Y-110901783D01*
X153706525Y-110911298D01*
X153620922Y-110918248D01*
X153516047Y-110922945D01*
X153388677Y-110925702D01*
X153235591Y-110926833D01*
X153177970Y-110926903D01*
X152743457Y-110926903D01*
X152743457Y-110641510D01*
X153073912Y-110641510D01*
X153340529Y-110641487D01*
X153440670Y-110641044D01*
X153515677Y-110639467D01*
X153570451Y-110636351D01*
X153609891Y-110631294D01*
X153638896Y-110623891D01*
X153659510Y-110615200D01*
X153711971Y-110574384D01*
X153742538Y-110520249D01*
X153751535Y-110459697D01*
X153739286Y-110399628D01*
X153706114Y-110346944D01*
X153652344Y-110308547D01*
X153644971Y-110305406D01*
X153613977Y-110295751D01*
X153573513Y-110288869D01*
X153518624Y-110284375D01*
X153444354Y-110281889D01*
X153345747Y-110281026D01*
X153328960Y-110281013D01*
X153073912Y-110281013D01*
X153073912Y-110461262D01*
X153073912Y-110641510D01*
X152743457Y-110641510D01*
X152743457Y-110461262D01*
X152743457Y-110153337D01*
X152743457Y-110013027D01*
X153073912Y-110013027D01*
X153348040Y-110008078D01*
X153450501Y-110005766D01*
X153527544Y-110002746D01*
X153583790Y-109998574D01*
X153623860Y-109992804D01*
X153652376Y-109984992D01*
X153669734Y-109977105D01*
X153713247Y-109937663D01*
X153738516Y-109882427D01*
X153744665Y-109820112D01*
X153730816Y-109759439D01*
X153696633Y-109709627D01*
X153669230Y-109689539D01*
X153632733Y-109674386D01*
X153583033Y-109663554D01*
X153516017Y-109656427D01*
X153427574Y-109652392D01*
X153313593Y-109650835D01*
X153302978Y-109650798D01*
X153073912Y-109650144D01*
X153073912Y-109831585D01*
X153073912Y-110013027D01*
X152743457Y-110013027D01*
X152743457Y-109831585D01*
X152743457Y-109379771D01*
X153228473Y-109379771D01*
X153381830Y-109380152D01*
G37*
G36*
X157309749Y-109514101D02*
G01*
X157309749Y-109650144D01*
X156913750Y-109650144D01*
X156769693Y-109650648D01*
X156652362Y-109652434D01*
X156558457Y-109655911D01*
X156484677Y-109661488D01*
X156427720Y-109669574D01*
X156384284Y-109680579D01*
X156351068Y-109694911D01*
X156324771Y-109712981D01*
X156311987Y-109724733D01*
X156284178Y-109758133D01*
X156270851Y-109793987D01*
X156266925Y-109845799D01*
X156268612Y-109894968D01*
X156278749Y-109927170D01*
X156302266Y-109955272D01*
X156312456Y-109964639D01*
X156359101Y-110006336D01*
X156718015Y-110014910D01*
X156822141Y-110018015D01*
X156919074Y-110022062D01*
X157003832Y-110026752D01*
X157071428Y-110031785D01*
X157116879Y-110036863D01*
X157131189Y-110039729D01*
X157222434Y-110080523D01*
X157292927Y-110142318D01*
X157342993Y-110225604D01*
X157372957Y-110330869D01*
X157382124Y-110417460D01*
X157378089Y-110549396D01*
X157352215Y-110660755D01*
X157304263Y-110751839D01*
X157233991Y-110822952D01*
X157141161Y-110874396D01*
X157025531Y-110906473D01*
X156990142Y-110911883D01*
X156949434Y-110915351D01*
X156886798Y-110918387D01*
X156806545Y-110920968D01*
X156712985Y-110923074D01*
X156610426Y-110924682D01*
X156503179Y-110925773D01*
X156395553Y-110926323D01*
X156291857Y-110926312D01*
X156196401Y-110925719D01*
X156113495Y-110924521D01*
X156047448Y-110922698D01*
X156002570Y-110920228D01*
X155983170Y-110917089D01*
X155982920Y-110916889D01*
X155978424Y-110898277D01*
X155974973Y-110857123D01*
X155973097Y-110800921D01*
X155972907Y-110775159D01*
X155972907Y-110643442D01*
X156442303Y-110638721D01*
X156575781Y-110637220D01*
X156682608Y-110635557D01*
X156766177Y-110633527D01*
X156829880Y-110630927D01*
X156877108Y-110627552D01*
X156911252Y-110623199D01*
X156935705Y-110617662D01*
X156953857Y-110610739D01*
X156960072Y-110607558D01*
X157011886Y-110564728D01*
X157037477Y-110508001D01*
X157036498Y-110438738D01*
X157018045Y-110379203D01*
X157003537Y-110352799D01*
X156982359Y-110332539D01*
X156950757Y-110317644D01*
X156904977Y-110307336D01*
X156841264Y-110300838D01*
X156755866Y-110297372D01*
X156645028Y-110296159D01*
X156617092Y-110296118D01*
X156491843Y-110295045D01*
X156391411Y-110291430D01*
X156310628Y-110284545D01*
X156244324Y-110273661D01*
X156187330Y-110258050D01*
X156134477Y-110236984D01*
X156108593Y-110224484D01*
X156032071Y-110169529D01*
X155973326Y-110093243D01*
X155933900Y-109999573D01*
X155915335Y-109892465D01*
X155919175Y-109775866D01*
X155923083Y-109749898D01*
X155951090Y-109639198D01*
X155994790Y-109551365D01*
X156057212Y-109482025D01*
X156141382Y-109426806D01*
X156149705Y-109422589D01*
X156168961Y-109413360D01*
X156187989Y-109405867D01*
X156210052Y-109399899D01*
X156238416Y-109395244D01*
X156276346Y-109391689D01*
X156327105Y-109389024D01*
X156393960Y-109387037D01*
X156480174Y-109385515D01*
X156589012Y-109384248D01*
X156723738Y-109383023D01*
X156765248Y-109382670D01*
X157309749Y-109378057D01*
X157309749Y-109514101D01*
G37*
G36*
X148971321Y-107584256D02*
G01*
X149066428Y-107619213D01*
X149152392Y-107676029D01*
X149225009Y-107754747D01*
X149265559Y-107822718D01*
X149303848Y-107932768D01*
X149314112Y-108045102D01*
X149296639Y-108154991D01*
X149251715Y-108257706D01*
X149237837Y-108279370D01*
X149178770Y-108347605D01*
X149104003Y-108407427D01*
X149024245Y-108450964D01*
X148986890Y-108463884D01*
X148928199Y-108479687D01*
X148928199Y-108839605D01*
X148928199Y-109199523D01*
X149821931Y-109199523D01*
X150715662Y-109199523D01*
X150715662Y-108840233D01*
X150715662Y-108480944D01*
X150641753Y-108456395D01*
X150564302Y-108418476D01*
X150487594Y-108359616D01*
X150420873Y-108287690D01*
X150389466Y-108241516D01*
X150367899Y-108199215D01*
X150354468Y-108155636D01*
X150346734Y-108100379D01*
X150343157Y-108043977D01*
X150340963Y-107979354D01*
X150343051Y-107933716D01*
X150351586Y-107896081D01*
X150368734Y-107855467D01*
X150387698Y-107818082D01*
X150454224Y-107719738D01*
X150538263Y-107645511D01*
X150638230Y-107596331D01*
X150752538Y-107573125D01*
X150808831Y-107571416D01*
X150918044Y-107587885D01*
X151019013Y-107630678D01*
X151107045Y-107696286D01*
X151177444Y-107781204D01*
X151225516Y-107881922D01*
X151225873Y-107883012D01*
X151236132Y-107930448D01*
X151242753Y-107991930D01*
X151244194Y-108036010D01*
X151229365Y-108149274D01*
X151187979Y-108251789D01*
X151122654Y-108339967D01*
X151036008Y-108410218D01*
X150937218Y-108456784D01*
X150865869Y-108480944D01*
X150865869Y-108840233D01*
X150865869Y-109199523D01*
X151354042Y-109199523D01*
X151842215Y-109199523D01*
X151842215Y-109639108D01*
X151842215Y-110078693D01*
X151921073Y-110106279D01*
X151998634Y-110146316D01*
X152073550Y-110207589D01*
X152137723Y-110281790D01*
X152183059Y-110360611D01*
X152191844Y-110384128D01*
X152214595Y-110500385D01*
X152208971Y-110613430D01*
X152176501Y-110719374D01*
X152118712Y-110814332D01*
X152037133Y-110894416D01*
X151975280Y-110934892D01*
X151932724Y-110956779D01*
X151895381Y-110970071D01*
X151853147Y-110976851D01*
X151795923Y-110979202D01*
X151759601Y-110979368D01*
X151687509Y-110977867D01*
X151635980Y-110972433D01*
X151595624Y-110961463D01*
X151560994Y-110945479D01*
X151463712Y-110880573D01*
X151390213Y-110800783D01*
X151350889Y-110734362D01*
X151328389Y-110683459D01*
X151315742Y-110637498D01*
X151310441Y-110583944D01*
X151309794Y-110528855D01*
X151312188Y-110459604D01*
X151319900Y-110408277D01*
X151335399Y-110362894D01*
X151350390Y-110331733D01*
X151403864Y-110252858D01*
X151475430Y-110181650D01*
X151555750Y-110126466D01*
X151604252Y-110104526D01*
X151676987Y-110078693D01*
X151676987Y-109721722D01*
X151676987Y-109364751D01*
X150790766Y-109364751D01*
X149904545Y-109364751D01*
X149904545Y-109723295D01*
X149904545Y-110081840D01*
X149969867Y-110100129D01*
X150050619Y-110135636D01*
X150128845Y-110192937D01*
X150195386Y-110264527D01*
X150224610Y-110308909D01*
X150262683Y-110404659D01*
X150279210Y-110512080D01*
X150273329Y-110621054D01*
X150256977Y-110688241D01*
X150219924Y-110763241D01*
X150162497Y-110837195D01*
X150092763Y-110901889D01*
X150018792Y-110949111D01*
X149988238Y-110961813D01*
X149874365Y-110986530D01*
X149765349Y-110984162D01*
X149664067Y-110957601D01*
X149573399Y-110909738D01*
X149496226Y-110843465D01*
X149435426Y-110761672D01*
X149393879Y-110667252D01*
X149374464Y-110563096D01*
X149380061Y-110452095D01*
X149400489Y-110371618D01*
X149441685Y-110289794D01*
X149504306Y-110212781D01*
X149580152Y-110148907D01*
X149661028Y-110106500D01*
X149661736Y-110106247D01*
X149739317Y-110078693D01*
X149739317Y-109721722D01*
X149739317Y-109364751D01*
X148853096Y-109364751D01*
X147966875Y-109364751D01*
X147966875Y-109723295D01*
X147966875Y-110081840D01*
X148032197Y-110100129D01*
X148122871Y-110140179D01*
X148205204Y-110204791D01*
X148272883Y-110288551D01*
X148293354Y-110324096D01*
X148321593Y-110384159D01*
X148336534Y-110434819D01*
X148342001Y-110491355D01*
X148342392Y-110519981D01*
X148338356Y-110586618D01*
X148327920Y-110654040D01*
X148317219Y-110695162D01*
X148281581Y-110765134D01*
X148225669Y-110835878D01*
X148157831Y-110899045D01*
X148086415Y-110946288D01*
X148050568Y-110961813D01*
X147973841Y-110979073D01*
X147886805Y-110985058D01*
X147802543Y-110979640D01*
X147739625Y-110964812D01*
X147635588Y-110911728D01*
X147551355Y-110838464D01*
X147488735Y-110748894D01*
X147449534Y-110646894D01*
X147435562Y-110536338D01*
X147448625Y-110421100D01*
X147462819Y-110371618D01*
X147504015Y-110289794D01*
X147566636Y-110212781D01*
X147642482Y-110148907D01*
X147723358Y-110106500D01*
X147724066Y-110106247D01*
X147801647Y-110078693D01*
X147801647Y-109639108D01*
X147801647Y-109199523D01*
X148289820Y-109199523D01*
X148777992Y-109199523D01*
X148777992Y-108842369D01*
X148777992Y-108485214D01*
X148680797Y-108442871D01*
X148580900Y-108385064D01*
X148500249Y-108305962D01*
X148444613Y-108220099D01*
X148420322Y-108150654D01*
X148408704Y-108064935D01*
X148409776Y-107973915D01*
X148423553Y-107888566D01*
X148444030Y-107831140D01*
X148505736Y-107735848D01*
X148583517Y-107662156D01*
X148673168Y-107610108D01*
X148770488Y-107579747D01*
X148871273Y-107571115D01*
X148971321Y-107584256D01*
G37*
D12*
%TO.C,C7*%
X151665000Y-94117248D02*
X151665000Y-94639752D01*
X153135000Y-94117248D02*
X153135000Y-94639752D01*
%TO.C,R3*%
X155983000Y-97636064D02*
X155983000Y-97181936D01*
X157453000Y-97636064D02*
X157453000Y-97181936D01*
%TO.C,C5*%
X145823000Y-97931248D02*
X145823000Y-98453752D01*
X147293000Y-97931248D02*
X147293000Y-98453752D01*
%TO.C,R4*%
X157888000Y-97636064D02*
X157888000Y-97181936D01*
X159358000Y-97636064D02*
X159358000Y-97181936D01*
%TO.C,R1*%
X147547064Y-105183000D02*
X147092936Y-105183000D01*
X147547064Y-106653000D02*
X147092936Y-106653000D01*
%TO.C,C3*%
X145569000Y-108726248D02*
X145569000Y-109248752D01*
X147039000Y-108726248D02*
X147039000Y-109248752D01*
%TO.C,J2*%
X151560000Y-86090000D02*
X150450000Y-86090000D01*
X151560000Y-89340000D02*
X150450000Y-89340000D01*
X152150000Y-90390000D02*
X152650000Y-90390000D01*
X152400000Y-89890000D02*
X152150000Y-90390000D01*
X152650000Y-90390000D02*
X152400000Y-89890000D01*
X154350000Y-86090000D02*
X153240000Y-86090000D01*
X154350000Y-89340000D02*
X153240000Y-89340000D01*
%TO.C,C4*%
X147855000Y-97927248D02*
X147855000Y-98449752D01*
X149325000Y-97927248D02*
X149325000Y-98449752D01*
%TO.C,C1*%
X153951000Y-102898752D02*
X153951000Y-102376248D01*
X155421000Y-102898752D02*
X155421000Y-102376248D01*
%TO.C,U1*%
X150290000Y-98637500D02*
X150290000Y-101637500D01*
X153510000Y-98637500D02*
X153510000Y-101637500D01*
X153680000Y-98087500D02*
X153200000Y-98087500D01*
X153200000Y-97607500D01*
X153680000Y-98087500D01*
G36*
X153680000Y-98087500D02*
G01*
X153200000Y-98087500D01*
X153200000Y-97607500D01*
X153680000Y-98087500D01*
G37*
%TO.C,C6*%
X141746248Y-89054000D02*
X142268752Y-89054000D01*
X141746248Y-90524000D02*
X142268752Y-90524000D01*
%TD*%
M02*
