M48
; DRILL file {KiCad 8.0.5} date 2025-05-26T14:33:55+0200
; FORMAT={-:-/ absolute / inch / decimal}
; #@! TF.CreationDate,2025-05-26T14:33:55+02:00
; #@! TF.GenerationSoftware,Kicad,Pcbnew,8.0.5
; #@! TF.FileFunction,Plated,1,2,PTH
FMAT,2
INCH
; #@! TA.AperFunction,Plated,PTH,ViaDrill
T1C0.0118
; #@! TA.AperFunction,Plated,PTH,ComponentDrill
T2C0.0354
%
G90
G05
T1
X5.685Y-3.535
X5.76Y-4.39
X5.77Y-3.965
X5.82Y-3.46
X5.85Y-3.9648
X5.86Y-3.6
X5.875Y-4.065
X5.875Y-4.0945
X5.9033Y-3.9421
X5.955Y-4.16
X6.061Y-3.9428
X6.17Y-3.745
X6.17Y-3.935
X6.18Y-3.46
X6.245Y-3.745
X6.245Y-3.935
T2
X5.55Y-3.65
X5.55Y-3.75
X5.55Y-3.85
X5.55Y-3.95
X5.55Y-4.05
X5.55Y-4.15
X5.55Y-4.25
X5.55Y-4.35
X6.45Y-3.65
X6.45Y-3.75
X6.45Y-3.85
X6.45Y-3.95
X6.45Y-4.05
X6.45Y-4.15
X6.45Y-4.25
X6.45Y-4.35
M30
