M48
; DRILL file {KiCad 8.0.5} date 2025-05-26T12:46:01+0200
; FORMAT={-:-/ absolute / inch / decimal}
; #@! TF.CreationDate,2025-05-26T12:46:01+02:00
; #@! TF.GenerationSoftware,Kicad,Pcbnew,8.0.5
; #@! TF.FileFunction,Plated,1,2,PTH
FMAT,2
INCH
; #@! TA.AperFunction,Plated,PTH,ViaDrill
T1C0.0118
; #@! TA.AperFunction,Plated,PTH,ViaDrill
T2C0.0157
; #@! TA.AperFunction,Plated,PTH,ComponentDrill
T3C0.0200
; #@! TA.AperFunction,Plated,PTH,ComponentDrill
T4C0.0354
%
G90
G05
T1
X4.56Y-2.43
X4.64Y-2.43
X4.73Y-3.37
X4.815Y-2.36
X4.87Y-3.52
X4.94Y-4.15
X4.955Y-3.145
X4.955Y-3.235
X5.01Y-3.9
X5.07Y-3.55
X5.09Y-3.65
X5.1Y-3.31
X5.1Y-3.38
X5.115Y-3.22
X5.185Y-2.36
X5.19Y-3.78
X5.2Y-3.94
X5.2364Y-3.44
X5.2364Y-3.49
X5.27Y-3.19
X5.3036Y-3.44
X5.3036Y-3.49
X5.32Y-4.005
X5.35Y-3.035
X5.425Y-2.485
X5.44Y-3.41
X5.445Y-2.78
T2
X4.63Y-3.52
X4.83Y-3.995
X4.84Y-3.08
X5.29Y-2.7
T3
X4.73Y-2.525
X4.73Y-2.825
X4.73Y-2.925
X4.785Y-2.555
X4.785Y-2.775
X4.785Y-2.875
X4.785Y-2.98
X4.83Y-2.625
X4.83Y-2.725
X4.835Y-2.925
X4.85Y-2.5
X4.885Y-2.88
X4.9Y-2.555
X4.95Y-2.6
X4.97Y-2.74
X4.985Y-2.88
X5.035Y-2.925
X5.05Y-2.6
X5.085Y-2.98
X5.1Y-2.555
X5.135Y-2.925
X5.15Y-2.5
X5.155Y-2.575
X5.155Y-2.675
X5.155Y-2.775
X5.155Y-2.875
X5.21Y-2.525
X5.21Y-2.625
X5.21Y-2.725
X5.21Y-2.825
X5.21Y-2.925
T4
X4.55Y-3.65
X4.55Y-3.75
X4.55Y-3.85
X4.55Y-3.95
X4.55Y-4.05
X4.55Y-4.15
X4.55Y-4.25
X4.55Y-4.35
X5.45Y-3.65
X5.45Y-3.75
X5.45Y-3.85
X5.45Y-3.95
X5.45Y-4.05
X5.45Y-4.15
X5.45Y-4.25
X5.45Y-4.35
M30
