%TF.GenerationSoftware,KiCad,Pcbnew,8.0.5*%
%TF.CreationDate,2025-05-26T12:46:03+02:00*%
%TF.ProjectId,RF_Emmiter,52465f45-6d6d-4697-9465-722e6b696361,rev?*%
%TF.SameCoordinates,Original*%
%TF.FileFunction,Copper,L2,Bot*%
%TF.FilePolarity,Positive*%
%FSLAX46Y46*%
G04 Gerber Fmt 4.6, Leading zero omitted, Abs format (unit mm)*
G04 Created by KiCad (PCBNEW 8.0.5) date 2025-05-26 12:46:03*
%MOMM*%
%LPD*%
G01*
G04 APERTURE LIST*
G04 Aperture macros list*
%AMRoundRect*
0 Rectangle with rounded corners*
0 $1 Rounding radius*
0 $2 $3 $4 $5 $6 $7 $8 $9 X,Y pos of 4 corners*
0 Add a 4 corners polygon primitive as box body*
4,1,4,$2,$3,$4,$5,$6,$7,$8,$9,$2,$3,0*
0 Add four circle primitives for the rounded corners*
1,1,$1+$1,$2,$3*
1,1,$1+$1,$4,$5*
1,1,$1+$1,$6,$7*
1,1,$1+$1,$8,$9*
0 Add four rect primitives between the rounded corners*
20,1,$1+$1,$2,$3,$4,$5,0*
20,1,$1+$1,$4,$5,$6,$7,0*
20,1,$1+$1,$6,$7,$8,$9,0*
20,1,$1+$1,$8,$9,$2,$3,0*%
G04 Aperture macros list end*
%TA.AperFunction,SMDPad,CuDef*%
%ADD10RoundRect,0.250000X0.425000X1.600000X-0.425000X1.600000X-0.425000X-1.600000X0.425000X-1.600000X0*%
%TD*%
%TA.AperFunction,ComponentPad*%
%ADD11C,1.800000*%
%TD*%
%TA.AperFunction,ComponentPad*%
%ADD12C,1.016000*%
%TD*%
%TA.AperFunction,ViaPad*%
%ADD13C,0.800000*%
%TD*%
%TA.AperFunction,ViaPad*%
%ADD14C,0.600000*%
%TD*%
%TA.AperFunction,Conductor*%
%ADD15C,0.500000*%
%TD*%
%TA.AperFunction,Conductor*%
%ADD16C,0.200000*%
%TD*%
G04 APERTURE END LIST*
D10*
%TO.P,J2,2,Ext*%
%TO.N,GND*%
X129825000Y-59522500D03*
X124175000Y-59522500D03*
%TD*%
D11*
%TO.P,J1,1,AN*%
%TO.N,unconnected-(J1-AN-Pad1)*%
X115570000Y-92710000D03*
%TO.P,J1,2,RST*%
%TO.N,unconnected-(J1-RST-Pad2)*%
X115570000Y-95250000D03*
%TO.P,J1,3,CS*%
%TO.N,unconnected-(J1-CS-Pad3)*%
X115570000Y-97790000D03*
%TO.P,J1,4,SCK*%
%TO.N,unconnected-(J1-SCK-Pad4)*%
X115570000Y-100330000D03*
%TO.P,J1,5,SDO*%
%TO.N,unconnected-(J1-SDO-Pad5)*%
X115570000Y-102870000D03*
%TO.P,J1,6,SDI*%
%TO.N,unconnected-(J1-SDI-Pad6)*%
X115570000Y-105410000D03*
%TO.P,J1,7,3V3*%
%TO.N,+3V3*%
X115570000Y-107950000D03*
%TO.P,J1,8,GND*%
%TO.N,GND*%
X115570000Y-110490000D03*
%TO.P,J1,9,PWM*%
%TO.N,unconnected-(J1-PWM-Pad9)*%
X138430000Y-92710000D03*
%TO.P,J1,10,INT*%
%TO.N,unconnected-(J1-INT-Pad10)*%
X138430000Y-95250000D03*
%TO.P,J1,11,TX*%
%TO.N,unconnected-(J1-TX-Pad11)*%
X138430000Y-97790000D03*
%TO.P,J1,12,RX*%
%TO.N,unconnected-(J1-RX-Pad12)*%
X138430000Y-100330000D03*
%TO.P,J1,13,SCL*%
%TO.N,SCL*%
X138430000Y-102870000D03*
%TO.P,J1,14,SDA*%
%TO.N,SDA*%
X138430000Y-105410000D03*
%TO.P,J1,15,5V*%
%TO.N,+5V*%
X138430000Y-107950000D03*
%TO.P,J1,16,GND*%
%TO.N,GND*%
X138430000Y-110490000D03*
%TD*%
D12*
%TO.P,X1,1,GND*%
%TO.N,GND*%
X121539000Y-75692000D03*
X129159000Y-75692000D03*
X120142000Y-74295000D03*
X122809000Y-74295000D03*
X127889000Y-74295000D03*
X130429000Y-74295000D03*
X132334000Y-74295000D03*
X124079000Y-73152000D03*
X126619000Y-73152000D03*
X121539000Y-73025000D03*
X130937000Y-73025000D03*
X120142000Y-71755000D03*
X132334000Y-71755000D03*
X121539000Y-70485000D03*
X130937000Y-70485000D03*
X126238000Y-69596000D03*
X122682000Y-69215000D03*
X132334000Y-69215000D03*
X130937000Y-67945000D03*
X122682000Y-66675000D03*
X132334000Y-66675000D03*
X125730000Y-66040000D03*
X128270000Y-66040000D03*
X130937000Y-65405000D03*
X121539000Y-64897000D03*
X124460000Y-64897000D03*
X129540000Y-64897000D03*
X120142000Y-64135000D03*
X132334000Y-64135000D03*
X123190000Y-63500000D03*
X130810000Y-63500000D03*
%TD*%
D13*
%TO.N,+10V*%
X122936000Y-78232000D03*
X134366000Y-68580000D03*
%TO.N,+10.5V*%
X117602000Y-89408000D03*
X122682000Y-101473000D03*
D14*
%TO.N,GND*%
X131699000Y-59944000D03*
X122301000Y-59944000D03*
%TO.N,SDA*%
X135128000Y-101727000D03*
%TO.N,GND*%
X129921000Y-81788000D03*
X138303000Y-70612000D03*
X137795000Y-63119000D03*
X135890000Y-77089000D03*
X125857000Y-79883000D03*
X125857000Y-82169000D03*
X123698000Y-89408000D03*
X120142000Y-85598000D03*
X117856000Y-61722000D03*
X115824000Y-61722000D03*
%TO.N,+5V*%
X129540000Y-85852000D03*
X129540000Y-84074000D03*
%TO.N,GND*%
X133858000Y-81026000D03*
X138176000Y-86614000D03*
%TO.N,Net-(U2-A0)*%
X134712000Y-87376000D03*
X133004000Y-87376000D03*
%TO.N,GND*%
X128778000Y-90170000D03*
%TO.N,+10.5V*%
X133004000Y-88646000D03*
X134712000Y-88646000D03*
%TO.N,GND*%
X131826000Y-96012000D03*
X129286000Y-92710000D03*
X125476000Y-105410000D03*
X132080000Y-100076000D03*
X127254000Y-99060000D03*
%TD*%
D15*
%TO.N,+10V*%
X132588000Y-78232000D02*
X134366000Y-76454000D01*
X122936000Y-78232000D02*
X132588000Y-78232000D01*
X134366000Y-76454000D02*
X134366000Y-68580000D01*
%TO.N,+10.5V*%
X122682000Y-94488000D02*
X117602000Y-89408000D01*
X122682000Y-101473000D02*
X122682000Y-94488000D01*
D16*
%TO.N,SDA*%
X135128000Y-104140000D02*
X136398000Y-105410000D01*
X136398000Y-105410000D02*
X138430000Y-105410000D01*
X135128000Y-101727000D02*
X135128000Y-104140000D01*
%TO.N,+5V*%
X129540000Y-85852000D02*
X129540000Y-84074000D01*
%TO.N,Net-(U2-A0)*%
X133004000Y-87376000D02*
X134712000Y-87376000D01*
%TO.N,+10.5V*%
X133004000Y-88646000D02*
X134712000Y-88646000D01*
%TD*%
%TA.AperFunction,Conductor*%
%TO.N,GND*%
G36*
X123011620Y-57470185D02*
G01*
X123057375Y-57522989D01*
X123067319Y-57592147D01*
X123062287Y-57613504D01*
X123010494Y-57769802D01*
X123010493Y-57769809D01*
X123000000Y-57872513D01*
X123000000Y-59272500D01*
X125349999Y-59272500D01*
X125349999Y-57872528D01*
X125349998Y-57872513D01*
X125339505Y-57769802D01*
X125287713Y-57613504D01*
X125285311Y-57543676D01*
X125321043Y-57483634D01*
X125383563Y-57452441D01*
X125405419Y-57450500D01*
X128594581Y-57450500D01*
X128661620Y-57470185D01*
X128707375Y-57522989D01*
X128717319Y-57592147D01*
X128712287Y-57613504D01*
X128660494Y-57769802D01*
X128660493Y-57769809D01*
X128650000Y-57872513D01*
X128650000Y-59272500D01*
X130999999Y-59272500D01*
X130999999Y-57872528D01*
X130999998Y-57872513D01*
X130989505Y-57769802D01*
X130937713Y-57613504D01*
X130935311Y-57543676D01*
X130971043Y-57483634D01*
X131033563Y-57452441D01*
X131055419Y-57450500D01*
X139275500Y-57450500D01*
X139342539Y-57470185D01*
X139388294Y-57522989D01*
X139399500Y-57574500D01*
X139399500Y-91436230D01*
X139379815Y-91503269D01*
X139327011Y-91549024D01*
X139257853Y-91558968D01*
X139203293Y-91535765D01*
X139202921Y-91536336D01*
X139199725Y-91534248D01*
X139199339Y-91534084D01*
X139198633Y-91533535D01*
X139198628Y-91533531D01*
X138994504Y-91423064D01*
X138994495Y-91423061D01*
X138774984Y-91347702D01*
X138603282Y-91319050D01*
X138546049Y-91309500D01*
X138313951Y-91309500D01*
X138268164Y-91317140D01*
X138085015Y-91347702D01*
X137865504Y-91423061D01*
X137865495Y-91423064D01*
X137661371Y-91533531D01*
X137661365Y-91533535D01*
X137478222Y-91676081D01*
X137478219Y-91676084D01*
X137321016Y-91846852D01*
X137194075Y-92041151D01*
X137100842Y-92253699D01*
X137043866Y-92478691D01*
X137043864Y-92478702D01*
X137024700Y-92709993D01*
X137024700Y-92710006D01*
X137043864Y-92941297D01*
X137043866Y-92941308D01*
X137100842Y-93166300D01*
X137194075Y-93378848D01*
X137321016Y-93573147D01*
X137321019Y-93573151D01*
X137321021Y-93573153D01*
X137478216Y-93743913D01*
X137478219Y-93743915D01*
X137478222Y-93743918D01*
X137655818Y-93882147D01*
X137696631Y-93938857D01*
X137700306Y-94008630D01*
X137665674Y-94069313D01*
X137655818Y-94077853D01*
X137478222Y-94216081D01*
X137478219Y-94216084D01*
X137321016Y-94386852D01*
X137194075Y-94581151D01*
X137100842Y-94793699D01*
X137043866Y-95018691D01*
X137043864Y-95018702D01*
X137024700Y-95249993D01*
X137024700Y-95250006D01*
X137043864Y-95481297D01*
X137043866Y-95481308D01*
X137100842Y-95706300D01*
X137194075Y-95918848D01*
X137321016Y-96113147D01*
X137321019Y-96113151D01*
X137321021Y-96113153D01*
X137478216Y-96283913D01*
X137478219Y-96283915D01*
X137478222Y-96283918D01*
X137655818Y-96422147D01*
X137696631Y-96478857D01*
X137700306Y-96548630D01*
X137665674Y-96609313D01*
X137655818Y-96617853D01*
X137478222Y-96756081D01*
X137478219Y-96756084D01*
X137321016Y-96926852D01*
X137194075Y-97121151D01*
X137100842Y-97333699D01*
X137043866Y-97558691D01*
X137043864Y-97558702D01*
X137024700Y-97789993D01*
X137024700Y-97790006D01*
X137043864Y-98021297D01*
X137043866Y-98021308D01*
X137100842Y-98246300D01*
X137194075Y-98458848D01*
X137321016Y-98653147D01*
X137321019Y-98653151D01*
X137321021Y-98653153D01*
X137478216Y-98823913D01*
X137478219Y-98823915D01*
X137478222Y-98823918D01*
X137655818Y-98962147D01*
X137696631Y-99018857D01*
X137700306Y-99088630D01*
X137665674Y-99149313D01*
X137655818Y-99157853D01*
X137478222Y-99296081D01*
X137478219Y-99296084D01*
X137321016Y-99466852D01*
X137194075Y-99661151D01*
X137100842Y-99873699D01*
X137043866Y-100098691D01*
X137043864Y-100098702D01*
X137024700Y-100329993D01*
X137024700Y-100330006D01*
X137043864Y-100561297D01*
X137043866Y-100561308D01*
X137100842Y-100786300D01*
X137194075Y-100998848D01*
X137321016Y-101193147D01*
X137321019Y-101193151D01*
X137321021Y-101193153D01*
X137478216Y-101363913D01*
X137478219Y-101363915D01*
X137478222Y-101363918D01*
X137655818Y-101502147D01*
X137696631Y-101558857D01*
X137700306Y-101628630D01*
X137665674Y-101689313D01*
X137655818Y-101697853D01*
X137478222Y-101836081D01*
X137478219Y-101836084D01*
X137478216Y-101836086D01*
X137478216Y-101836087D01*
X137473432Y-101841284D01*
X137321016Y-102006852D01*
X137194075Y-102201151D01*
X137100842Y-102413699D01*
X137043866Y-102638691D01*
X137043864Y-102638702D01*
X137024700Y-102869993D01*
X137024700Y-102870006D01*
X137043864Y-103101297D01*
X137043866Y-103101308D01*
X137100842Y-103326300D01*
X137194075Y-103538848D01*
X137321016Y-103733147D01*
X137321019Y-103733151D01*
X137321021Y-103733153D01*
X137478216Y-103903913D01*
X137478219Y-103903915D01*
X137478222Y-103903918D01*
X137655818Y-104042147D01*
X137696631Y-104098857D01*
X137700306Y-104168630D01*
X137665674Y-104229313D01*
X137655818Y-104237853D01*
X137478222Y-104376081D01*
X137478219Y-104376084D01*
X137478216Y-104376086D01*
X137478216Y-104376087D01*
X137460501Y-104395331D01*
X137321016Y-104546852D01*
X137194075Y-104741151D01*
X137192253Y-104744519D01*
X137143033Y-104794109D01*
X137083199Y-104809500D01*
X136698097Y-104809500D01*
X136631058Y-104789815D01*
X136610416Y-104773181D01*
X135764819Y-103927584D01*
X135731334Y-103866261D01*
X135728500Y-103839903D01*
X135728500Y-102309412D01*
X135748185Y-102242373D01*
X135755555Y-102232097D01*
X135757810Y-102229267D01*
X135757816Y-102229262D01*
X135853789Y-102076522D01*
X135913368Y-101906255D01*
X135919106Y-101855331D01*
X135933565Y-101727003D01*
X135933565Y-101726996D01*
X135913369Y-101547750D01*
X135913368Y-101547745D01*
X135898925Y-101506470D01*
X135853789Y-101377478D01*
X135757816Y-101224738D01*
X135630262Y-101097184D01*
X135477523Y-101001211D01*
X135307254Y-100941631D01*
X135307249Y-100941630D01*
X135128004Y-100921435D01*
X135127996Y-100921435D01*
X134948750Y-100941630D01*
X134948745Y-100941631D01*
X134778476Y-101001211D01*
X134625737Y-101097184D01*
X134498184Y-101224737D01*
X134402211Y-101377476D01*
X134342631Y-101547745D01*
X134342630Y-101547750D01*
X134322435Y-101726996D01*
X134322435Y-101727003D01*
X134342630Y-101906249D01*
X134342631Y-101906254D01*
X134402211Y-102076523D01*
X134498185Y-102229263D01*
X134500445Y-102232097D01*
X134501334Y-102234275D01*
X134501889Y-102235158D01*
X134501734Y-102235255D01*
X134526855Y-102296783D01*
X134527500Y-102309412D01*
X134527500Y-104053330D01*
X134527499Y-104053348D01*
X134527499Y-104219054D01*
X134527498Y-104219054D01*
X134568422Y-104371782D01*
X134568424Y-104371787D01*
X134570908Y-104376089D01*
X134570909Y-104376091D01*
X134647477Y-104508712D01*
X134647481Y-104508717D01*
X134766349Y-104627585D01*
X134766355Y-104627590D01*
X135913139Y-105774374D01*
X135913149Y-105774385D01*
X135917479Y-105778715D01*
X135917480Y-105778716D01*
X136029284Y-105890520D01*
X136116095Y-105940639D01*
X136116097Y-105940641D01*
X136166213Y-105969576D01*
X136166215Y-105969577D01*
X136318942Y-106010500D01*
X136318943Y-106010500D01*
X137083199Y-106010500D01*
X137150238Y-106030185D01*
X137192253Y-106075481D01*
X137194075Y-106078848D01*
X137321016Y-106273147D01*
X137321019Y-106273151D01*
X137321021Y-106273153D01*
X137478216Y-106443913D01*
X137478219Y-106443915D01*
X137478222Y-106443918D01*
X137655818Y-106582147D01*
X137696631Y-106638857D01*
X137700306Y-106708630D01*
X137665674Y-106769313D01*
X137655818Y-106777853D01*
X137478222Y-106916081D01*
X137478219Y-106916084D01*
X137321016Y-107086852D01*
X137194075Y-107281151D01*
X137100842Y-107493699D01*
X137043866Y-107718691D01*
X137043864Y-107718702D01*
X137024700Y-107949993D01*
X137024700Y-107950006D01*
X137043864Y-108181297D01*
X137043866Y-108181308D01*
X137100842Y-108406300D01*
X137194075Y-108618848D01*
X137321016Y-108813147D01*
X137321019Y-108813151D01*
X137321021Y-108813153D01*
X137478216Y-108983913D01*
X137656225Y-109122462D01*
X137697038Y-109179173D01*
X137700713Y-109248946D01*
X137666082Y-109309629D01*
X137656225Y-109318170D01*
X137631201Y-109337646D01*
X137631200Y-109337647D01*
X138341414Y-110047861D01*
X138256306Y-110070667D01*
X138153694Y-110129910D01*
X138069910Y-110213694D01*
X138010667Y-110316306D01*
X137987861Y-110401415D01*
X137278811Y-109692365D01*
X137194516Y-109821390D01*
X137101317Y-110033864D01*
X137044361Y-110258781D01*
X137025202Y-110489994D01*
X137025202Y-110490005D01*
X137044361Y-110721218D01*
X137101317Y-110946135D01*
X137194515Y-111158606D01*
X137278812Y-111287633D01*
X137987861Y-110578584D01*
X138010667Y-110663694D01*
X138069910Y-110766306D01*
X138153694Y-110850090D01*
X138256306Y-110909333D01*
X138341414Y-110932137D01*
X137631201Y-111642351D01*
X137661649Y-111666050D01*
X137865697Y-111776476D01*
X137865706Y-111776479D01*
X138085139Y-111851811D01*
X138313993Y-111890000D01*
X138546007Y-111890000D01*
X138774860Y-111851811D01*
X138889754Y-111812368D01*
X138959552Y-111809218D01*
X139019974Y-111844304D01*
X139051834Y-111906486D01*
X139045019Y-111976023D01*
X139017698Y-112017330D01*
X137071848Y-113963181D01*
X137010525Y-113996666D01*
X136984167Y-113999500D01*
X114724500Y-113999500D01*
X114657461Y-113979815D01*
X114611706Y-113927011D01*
X114600500Y-113875500D01*
X114600500Y-111763135D01*
X114620185Y-111696096D01*
X114672989Y-111650341D01*
X114742147Y-111640397D01*
X114797038Y-111663743D01*
X114797362Y-111663249D01*
X114800132Y-111665059D01*
X114800670Y-111665288D01*
X114801650Y-111666050D01*
X114801648Y-111666050D01*
X115005697Y-111776476D01*
X115005706Y-111776479D01*
X115225139Y-111851811D01*
X115453993Y-111890000D01*
X115686007Y-111890000D01*
X115914860Y-111851811D01*
X116134293Y-111776479D01*
X116134301Y-111776476D01*
X116338355Y-111666047D01*
X116368797Y-111642351D01*
X116368798Y-111642351D01*
X115658585Y-110932138D01*
X115743694Y-110909333D01*
X115846306Y-110850090D01*
X115930090Y-110766306D01*
X115989333Y-110663694D01*
X116012138Y-110578585D01*
X116721186Y-111287633D01*
X116805482Y-111158611D01*
X116898682Y-110946135D01*
X116955638Y-110721218D01*
X116974798Y-110490005D01*
X116974798Y-110489994D01*
X116955638Y-110258781D01*
X116898682Y-110033864D01*
X116805484Y-109821393D01*
X116721186Y-109692365D01*
X116012137Y-110401414D01*
X115989333Y-110316306D01*
X115930090Y-110213694D01*
X115846306Y-110129910D01*
X115743694Y-110070667D01*
X115658584Y-110047861D01*
X116368797Y-109337647D01*
X116368797Y-109337646D01*
X116343773Y-109318169D01*
X116302961Y-109261459D01*
X116299286Y-109191686D01*
X116333918Y-109131003D01*
X116343760Y-109122473D01*
X116521784Y-108983913D01*
X116678979Y-108813153D01*
X116805924Y-108618849D01*
X116899157Y-108406300D01*
X116956134Y-108181305D01*
X116975300Y-107950000D01*
X116975300Y-107949993D01*
X116956135Y-107718702D01*
X116956133Y-107718691D01*
X116899157Y-107493699D01*
X116805924Y-107281151D01*
X116678983Y-107086852D01*
X116678980Y-107086849D01*
X116678979Y-107086847D01*
X116521784Y-106916087D01*
X116344180Y-106777853D01*
X116303368Y-106721143D01*
X116299693Y-106651370D01*
X116334324Y-106590687D01*
X116344181Y-106582146D01*
X116521784Y-106443913D01*
X116678979Y-106273153D01*
X116805924Y-106078849D01*
X116899157Y-105866300D01*
X116956134Y-105641305D01*
X116975300Y-105410000D01*
X116975300Y-105409993D01*
X116956135Y-105178702D01*
X116956133Y-105178691D01*
X116899157Y-104953699D01*
X116805924Y-104741151D01*
X116678983Y-104546852D01*
X116678980Y-104546849D01*
X116678979Y-104546847D01*
X116521784Y-104376087D01*
X116344180Y-104237853D01*
X116303368Y-104181143D01*
X116299693Y-104111370D01*
X116334324Y-104050687D01*
X116344181Y-104042146D01*
X116521784Y-103903913D01*
X116678979Y-103733153D01*
X116805924Y-103538849D01*
X116899157Y-103326300D01*
X116956134Y-103101305D01*
X116975300Y-102870000D01*
X116975300Y-102869993D01*
X116956135Y-102638702D01*
X116956133Y-102638691D01*
X116899157Y-102413699D01*
X116805924Y-102201151D01*
X116678983Y-102006852D01*
X116678980Y-102006849D01*
X116678979Y-102006847D01*
X116521784Y-101836087D01*
X116344180Y-101697853D01*
X116303368Y-101641143D01*
X116299693Y-101571370D01*
X116334324Y-101510687D01*
X116344181Y-101502146D01*
X116381628Y-101473000D01*
X116521784Y-101363913D01*
X116678979Y-101193153D01*
X116805924Y-100998849D01*
X116899157Y-100786300D01*
X116956134Y-100561305D01*
X116975300Y-100330000D01*
X116975300Y-100329993D01*
X116956135Y-100098702D01*
X116956133Y-100098691D01*
X116899157Y-99873699D01*
X116805924Y-99661151D01*
X116678983Y-99466852D01*
X116678980Y-99466849D01*
X116678979Y-99466847D01*
X116521784Y-99296087D01*
X116344180Y-99157853D01*
X116303368Y-99101143D01*
X116299693Y-99031370D01*
X116334324Y-98970687D01*
X116344181Y-98962146D01*
X116521784Y-98823913D01*
X116678979Y-98653153D01*
X116805924Y-98458849D01*
X116899157Y-98246300D01*
X116956134Y-98021305D01*
X116975300Y-97790000D01*
X116975300Y-97789993D01*
X116956135Y-97558702D01*
X116956133Y-97558691D01*
X116899157Y-97333699D01*
X116805924Y-97121151D01*
X116678983Y-96926852D01*
X116678980Y-96926849D01*
X116678979Y-96926847D01*
X116521784Y-96756087D01*
X116344180Y-96617853D01*
X116303368Y-96561143D01*
X116299693Y-96491370D01*
X116334324Y-96430687D01*
X116344181Y-96422146D01*
X116521784Y-96283913D01*
X116678979Y-96113153D01*
X116805924Y-95918849D01*
X116899157Y-95706300D01*
X116956134Y-95481305D01*
X116975300Y-95250000D01*
X116975300Y-95249993D01*
X116956135Y-95018702D01*
X116956133Y-95018691D01*
X116899157Y-94793699D01*
X116805924Y-94581151D01*
X116678983Y-94386852D01*
X116678980Y-94386849D01*
X116678979Y-94386847D01*
X116521784Y-94216087D01*
X116344180Y-94077853D01*
X116303368Y-94021143D01*
X116299693Y-93951370D01*
X116334324Y-93890687D01*
X116344181Y-93882146D01*
X116521784Y-93743913D01*
X116678979Y-93573153D01*
X116805924Y-93378849D01*
X116899157Y-93166300D01*
X116956134Y-92941305D01*
X116975300Y-92710000D01*
X116975300Y-92709993D01*
X116956135Y-92478702D01*
X116956133Y-92478691D01*
X116899157Y-92253699D01*
X116805924Y-92041151D01*
X116678983Y-91846852D01*
X116678980Y-91846849D01*
X116678979Y-91846847D01*
X116521784Y-91676087D01*
X116521779Y-91676083D01*
X116521777Y-91676081D01*
X116338634Y-91533535D01*
X116338628Y-91533531D01*
X116134504Y-91423064D01*
X116134495Y-91423061D01*
X115914984Y-91347702D01*
X115743282Y-91319050D01*
X115686049Y-91309500D01*
X115453951Y-91309500D01*
X115408164Y-91317140D01*
X115225015Y-91347702D01*
X115005504Y-91423061D01*
X115005495Y-91423064D01*
X114801371Y-91533531D01*
X114801366Y-91533535D01*
X114800661Y-91534084D01*
X114800320Y-91534218D01*
X114797079Y-91536336D01*
X114796643Y-91535669D01*
X114735667Y-91559726D01*
X114667127Y-91546159D01*
X114616803Y-91497690D01*
X114600500Y-91436230D01*
X114600500Y-89408000D01*
X116696540Y-89408000D01*
X116716326Y-89596256D01*
X116716327Y-89596259D01*
X116774818Y-89776277D01*
X116774821Y-89776284D01*
X116869467Y-89940216D01*
X116996129Y-90080888D01*
X117149265Y-90192148D01*
X117149270Y-90192151D01*
X117322191Y-90269142D01*
X117322193Y-90269142D01*
X117322197Y-90269144D01*
X117387329Y-90282987D01*
X117448809Y-90316178D01*
X117449228Y-90316596D01*
X121895181Y-94762549D01*
X121928666Y-94823872D01*
X121931500Y-94850230D01*
X121931500Y-100938677D01*
X121914887Y-101000677D01*
X121854821Y-101104714D01*
X121815823Y-101224738D01*
X121796326Y-101284744D01*
X121776540Y-101473000D01*
X121796326Y-101661256D01*
X121796327Y-101661259D01*
X121854818Y-101841277D01*
X121854821Y-101841284D01*
X121949467Y-102005216D01*
X122076129Y-102145888D01*
X122229265Y-102257148D01*
X122229270Y-102257151D01*
X122402192Y-102334142D01*
X122402197Y-102334144D01*
X122587354Y-102373500D01*
X122587355Y-102373500D01*
X122776644Y-102373500D01*
X122776646Y-102373500D01*
X122961803Y-102334144D01*
X123134730Y-102257151D01*
X123287871Y-102145888D01*
X123414533Y-102005216D01*
X123509179Y-101841284D01*
X123567674Y-101661256D01*
X123587460Y-101473000D01*
X123567674Y-101284744D01*
X123509179Y-101104716D01*
X123509178Y-101104714D01*
X123449113Y-101000677D01*
X123432500Y-100938677D01*
X123432500Y-94414079D01*
X123403659Y-94269092D01*
X123403658Y-94269091D01*
X123403658Y-94269087D01*
X123381705Y-94216087D01*
X123347087Y-94132511D01*
X123347085Y-94132507D01*
X123347084Y-94132505D01*
X123306855Y-94072298D01*
X123264952Y-94009584D01*
X118514770Y-89259402D01*
X118484521Y-89210041D01*
X118429179Y-89039716D01*
X118334533Y-88875784D01*
X118207871Y-88735112D01*
X118207870Y-88735111D01*
X118054734Y-88623851D01*
X118054729Y-88623848D01*
X117881807Y-88546857D01*
X117881802Y-88546855D01*
X117736001Y-88515865D01*
X117696646Y-88507500D01*
X117507354Y-88507500D01*
X117474897Y-88514398D01*
X117322197Y-88546855D01*
X117322192Y-88546857D01*
X117149270Y-88623848D01*
X117149265Y-88623851D01*
X116996129Y-88735111D01*
X116869466Y-88875785D01*
X116774821Y-89039715D01*
X116774818Y-89039722D01*
X116719479Y-89210039D01*
X116716326Y-89219744D01*
X116696540Y-89408000D01*
X114600500Y-89408000D01*
X114600500Y-87375996D01*
X132198435Y-87375996D01*
X132198435Y-87376003D01*
X132218630Y-87555249D01*
X132218631Y-87555254D01*
X132278211Y-87725523D01*
X132374184Y-87878262D01*
X132374185Y-87878263D01*
X132419241Y-87923320D01*
X132452725Y-87984643D01*
X132447740Y-88054335D01*
X132419241Y-88098680D01*
X132374184Y-88143737D01*
X132278211Y-88296476D01*
X132218631Y-88466745D01*
X132218630Y-88466750D01*
X132198435Y-88645996D01*
X132198435Y-88646003D01*
X132218630Y-88825249D01*
X132218631Y-88825254D01*
X132278211Y-88995523D01*
X132374184Y-89148262D01*
X132501738Y-89275816D01*
X132654478Y-89371789D01*
X132757963Y-89408000D01*
X132824745Y-89431368D01*
X132824750Y-89431369D01*
X133003996Y-89451565D01*
X133004000Y-89451565D01*
X133004004Y-89451565D01*
X133183249Y-89431369D01*
X133183252Y-89431368D01*
X133183255Y-89431368D01*
X133353522Y-89371789D01*
X133506262Y-89275816D01*
X133506267Y-89275810D01*
X133509097Y-89273555D01*
X133511275Y-89272665D01*
X133512158Y-89272111D01*
X133512255Y-89272265D01*
X133573783Y-89247145D01*
X133586412Y-89246500D01*
X134129588Y-89246500D01*
X134196627Y-89266185D01*
X134206903Y-89273555D01*
X134209736Y-89275814D01*
X134209738Y-89275816D01*
X134362478Y-89371789D01*
X134465963Y-89408000D01*
X134532745Y-89431368D01*
X134532750Y-89431369D01*
X134711996Y-89451565D01*
X134712000Y-89451565D01*
X134712004Y-89451565D01*
X134891249Y-89431369D01*
X134891252Y-89431368D01*
X134891255Y-89431368D01*
X135061522Y-89371789D01*
X135214262Y-89275816D01*
X135341816Y-89148262D01*
X135437789Y-88995522D01*
X135497368Y-88825255D01*
X135517565Y-88646000D01*
X135515069Y-88623851D01*
X135497369Y-88466750D01*
X135497368Y-88466745D01*
X135437788Y-88296476D01*
X135341815Y-88143737D01*
X135296759Y-88098681D01*
X135263274Y-88037358D01*
X135268258Y-87967666D01*
X135296759Y-87923319D01*
X135341816Y-87878262D01*
X135437789Y-87725522D01*
X135497368Y-87555255D01*
X135517565Y-87376000D01*
X135497368Y-87196745D01*
X135437789Y-87026478D01*
X135341816Y-86873738D01*
X135214262Y-86746184D01*
X135061523Y-86650211D01*
X134891254Y-86590631D01*
X134891249Y-86590630D01*
X134712004Y-86570435D01*
X134711996Y-86570435D01*
X134532750Y-86590630D01*
X134532745Y-86590631D01*
X134362476Y-86650211D01*
X134209736Y-86746185D01*
X134206903Y-86748445D01*
X134204724Y-86749334D01*
X134203842Y-86749889D01*
X134203744Y-86749734D01*
X134142217Y-86774855D01*
X134129588Y-86775500D01*
X133586412Y-86775500D01*
X133519373Y-86755815D01*
X133509097Y-86748445D01*
X133506263Y-86746185D01*
X133506262Y-86746184D01*
X133449496Y-86710515D01*
X133353523Y-86650211D01*
X133183254Y-86590631D01*
X133183249Y-86590630D01*
X133004004Y-86570435D01*
X133003996Y-86570435D01*
X132824750Y-86590630D01*
X132824745Y-86590631D01*
X132654476Y-86650211D01*
X132501737Y-86746184D01*
X132374184Y-86873737D01*
X132278211Y-87026476D01*
X132218631Y-87196745D01*
X132218630Y-87196750D01*
X132198435Y-87375996D01*
X114600500Y-87375996D01*
X114600500Y-84073996D01*
X128734435Y-84073996D01*
X128734435Y-84074003D01*
X128754630Y-84253249D01*
X128754631Y-84253254D01*
X128814211Y-84423523D01*
X128910185Y-84576263D01*
X128912445Y-84579097D01*
X128913334Y-84581275D01*
X128913889Y-84582158D01*
X128913734Y-84582255D01*
X128938855Y-84643783D01*
X128939500Y-84656412D01*
X128939500Y-85269587D01*
X128919815Y-85336626D01*
X128912450Y-85346896D01*
X128910186Y-85349734D01*
X128814211Y-85502476D01*
X128754631Y-85672745D01*
X128754630Y-85672750D01*
X128734435Y-85851996D01*
X128734435Y-85852003D01*
X128754630Y-86031249D01*
X128754631Y-86031254D01*
X128814211Y-86201523D01*
X128910184Y-86354262D01*
X129037738Y-86481816D01*
X129190478Y-86577789D01*
X129360745Y-86637368D01*
X129360750Y-86637369D01*
X129539996Y-86657565D01*
X129540000Y-86657565D01*
X129540004Y-86657565D01*
X129719249Y-86637369D01*
X129719252Y-86637368D01*
X129719255Y-86637368D01*
X129889522Y-86577789D01*
X130042262Y-86481816D01*
X130169816Y-86354262D01*
X130265789Y-86201522D01*
X130325368Y-86031255D01*
X130345565Y-85852000D01*
X130325368Y-85672745D01*
X130265789Y-85502478D01*
X130169816Y-85349738D01*
X130169814Y-85349736D01*
X130169813Y-85349734D01*
X130167550Y-85346896D01*
X130166659Y-85344715D01*
X130166111Y-85343842D01*
X130166264Y-85343745D01*
X130141144Y-85282209D01*
X130140500Y-85269587D01*
X130140500Y-84656412D01*
X130160185Y-84589373D01*
X130167555Y-84579097D01*
X130169810Y-84576267D01*
X130169816Y-84576262D01*
X130265789Y-84423522D01*
X130325368Y-84253255D01*
X130345565Y-84074000D01*
X130325368Y-83894745D01*
X130265789Y-83724478D01*
X130169816Y-83571738D01*
X130042262Y-83444184D01*
X129889523Y-83348211D01*
X129719254Y-83288631D01*
X129719249Y-83288630D01*
X129540004Y-83268435D01*
X129539996Y-83268435D01*
X129360750Y-83288630D01*
X129360745Y-83288631D01*
X129190476Y-83348211D01*
X129037737Y-83444184D01*
X128910184Y-83571737D01*
X128814211Y-83724476D01*
X128754631Y-83894745D01*
X128754630Y-83894750D01*
X128734435Y-84073996D01*
X114600500Y-84073996D01*
X114600500Y-78232000D01*
X122030540Y-78232000D01*
X122050326Y-78420256D01*
X122050327Y-78420259D01*
X122108818Y-78600277D01*
X122108821Y-78600284D01*
X122203467Y-78764216D01*
X122323101Y-78897083D01*
X122330129Y-78904888D01*
X122483265Y-79016148D01*
X122483270Y-79016151D01*
X122656192Y-79093142D01*
X122656197Y-79093144D01*
X122841354Y-79132500D01*
X122841355Y-79132500D01*
X123030644Y-79132500D01*
X123030646Y-79132500D01*
X123215803Y-79093144D01*
X123388730Y-79016151D01*
X123390776Y-79014664D01*
X123402452Y-79006182D01*
X123468258Y-78982702D01*
X123475337Y-78982500D01*
X132661920Y-78982500D01*
X132759462Y-78963096D01*
X132806913Y-78953658D01*
X132943495Y-78897084D01*
X132992729Y-78864186D01*
X133066416Y-78814952D01*
X134948952Y-76932416D01*
X134998186Y-76858729D01*
X135031084Y-76809495D01*
X135054518Y-76752920D01*
X135087659Y-76672912D01*
X135116500Y-76527917D01*
X135116500Y-76380082D01*
X135116500Y-69114321D01*
X135133113Y-69052321D01*
X135193179Y-68948284D01*
X135251674Y-68768256D01*
X135271460Y-68580000D01*
X135251674Y-68391744D01*
X135193179Y-68211716D01*
X135098533Y-68047784D01*
X134971871Y-67907112D01*
X134971870Y-67907111D01*
X134818734Y-67795851D01*
X134818729Y-67795848D01*
X134645807Y-67718857D01*
X134645802Y-67718855D01*
X134500001Y-67687865D01*
X134460646Y-67679500D01*
X134271354Y-67679500D01*
X134238897Y-67686398D01*
X134086197Y-67718855D01*
X134086192Y-67718857D01*
X133913270Y-67795848D01*
X133913265Y-67795851D01*
X133760129Y-67907111D01*
X133633466Y-68047785D01*
X133538821Y-68211715D01*
X133538818Y-68211722D01*
X133480327Y-68391740D01*
X133480326Y-68391744D01*
X133460540Y-68580000D01*
X133480326Y-68768256D01*
X133480327Y-68768259D01*
X133538818Y-68948277D01*
X133538821Y-68948284D01*
X133598887Y-69052321D01*
X133615500Y-69114321D01*
X133615500Y-76091770D01*
X133595815Y-76158809D01*
X133579181Y-76179451D01*
X132313451Y-77445181D01*
X132252128Y-77478666D01*
X132225770Y-77481500D01*
X123475337Y-77481500D01*
X123408298Y-77461815D01*
X123402452Y-77457818D01*
X123388734Y-77447851D01*
X123388729Y-77447848D01*
X123215807Y-77370857D01*
X123215802Y-77370855D01*
X123070001Y-77339865D01*
X123030646Y-77331500D01*
X122841354Y-77331500D01*
X122808897Y-77338398D01*
X122656197Y-77370855D01*
X122656192Y-77370857D01*
X122483270Y-77447848D01*
X122483265Y-77447851D01*
X122330129Y-77559111D01*
X122203466Y-77699785D01*
X122108821Y-77863715D01*
X122108818Y-77863722D01*
X122050327Y-78043740D01*
X122050326Y-78043744D01*
X122030540Y-78232000D01*
X114600500Y-78232000D01*
X114600500Y-61172486D01*
X123000001Y-61172486D01*
X123010494Y-61275197D01*
X123065641Y-61441619D01*
X123065643Y-61441624D01*
X123157684Y-61590845D01*
X123281654Y-61714815D01*
X123430875Y-61806856D01*
X123430880Y-61806858D01*
X123597302Y-61862005D01*
X123597309Y-61862006D01*
X123700019Y-61872499D01*
X123924999Y-61872499D01*
X124425000Y-61872499D01*
X124649972Y-61872499D01*
X124649986Y-61872498D01*
X124752697Y-61862005D01*
X124919119Y-61806858D01*
X124919124Y-61806856D01*
X125068345Y-61714815D01*
X125192315Y-61590845D01*
X125284356Y-61441624D01*
X125284358Y-61441619D01*
X125339505Y-61275197D01*
X125339506Y-61275190D01*
X125349999Y-61172486D01*
X128650001Y-61172486D01*
X128660494Y-61275197D01*
X128715641Y-61441619D01*
X128715643Y-61441624D01*
X128807684Y-61590845D01*
X128931654Y-61714815D01*
X129080875Y-61806856D01*
X129080880Y-61806858D01*
X129247302Y-61862005D01*
X129247309Y-61862006D01*
X129350019Y-61872499D01*
X129574999Y-61872499D01*
X130075000Y-61872499D01*
X130299972Y-61872499D01*
X130299986Y-61872498D01*
X130402697Y-61862005D01*
X130569119Y-61806858D01*
X130569124Y-61806856D01*
X130718345Y-61714815D01*
X130842315Y-61590845D01*
X130934356Y-61441624D01*
X130934358Y-61441619D01*
X130989505Y-61275197D01*
X130989506Y-61275190D01*
X130999999Y-61172486D01*
X131000000Y-61172473D01*
X131000000Y-59772500D01*
X130075000Y-59772500D01*
X130075000Y-61872499D01*
X129574999Y-61872499D01*
X129575000Y-61872498D01*
X129575000Y-59772500D01*
X128650001Y-59772500D01*
X128650001Y-61172486D01*
X125349999Y-61172486D01*
X125350000Y-61172473D01*
X125350000Y-59772500D01*
X124425000Y-59772500D01*
X124425000Y-61872499D01*
X123924999Y-61872499D01*
X123925000Y-61872498D01*
X123925000Y-59772500D01*
X123000001Y-59772500D01*
X123000001Y-61172486D01*
X114600500Y-61172486D01*
X114600500Y-57574500D01*
X114620185Y-57507461D01*
X114672989Y-57461706D01*
X114724500Y-57450500D01*
X122944581Y-57450500D01*
X123011620Y-57470185D01*
G37*
%TD.AperFunction*%
%TD*%
M02*
